<svg width="164" height="45" viewBox="0 0 164 45" fill="none" xmlns="http://www.w3.org/2000/svg">
<path d="M133.733 0.00769043C133.744 0.141759 133.754 0.274945 133.765 0.409014C132.992 1.20019 131.977 1.09612 131.018 1.09964C124.407 1.12434 117.794 1.12522 111.182 1.09876C110.225 1.09523 109.207 1.20196 108.447 0.386081C108.477 0.261715 108.501 0.135585 108.517 0.00769043C116.922 0.00769043 125.328 0.00769043 133.733 0.00769043Z" fill="#505050"/>
<path d="M89.047 7.18118C87.9983 9.42418 87.0792 11.2923 86.251 13.2002C85.8594 14.1033 85.1979 14.1466 84.3837 14.1386C81.5127 14.1113 78.6391 14.1818 75.7698 14.1007C74.6452 14.0689 74.4036 14.4218 74.3877 15.5031C74.3189 20.0685 74.2774 20.0685 78.9169 20.0685C81.3681 20.0685 83.8201 20.1073 86.2704 20.0509C87.2274 20.0288 87.5705 20.252 87.6155 21.3016C87.8131 25.9093 87.8563 25.9076 83.2883 25.9076C80.5566 25.9076 77.8241 25.9472 75.0942 25.8873C74.0578 25.8643 73.578 26.0452 73.6591 27.2438C73.7941 29.2566 72.9906 31.8639 73.9793 33.1437C75.0342 34.5091 77.7668 33.5089 79.7628 33.5733C82.4212 33.6597 85.0876 33.665 87.7452 33.5645C89.0347 33.5159 89.5489 33.8705 89.3699 35.1856C89.2764 35.8727 89.3152 36.5845 89.3619 37.2804C89.4193 38.1219 89.0347 38.3398 88.2488 38.3371C81.4554 38.3177 74.662 38.3168 67.8686 38.3433C67.0377 38.3468 66.797 38.0505 66.7987 37.2513C66.8181 28.9294 66.7687 20.6066 66.8349 12.2846C66.8534 9.96663 70.0287 7.1803 72.3555 7.1803C77.8038 7.18118 83.253 7.18118 89.047 7.18118Z" fill="#505050"/>
<path d="M55.2053 18.5338C52.0265 25.6174 48.8485 32.7009 45.4695 40.2299C43.8474 36.5087 42.3903 33.1711 40.9411 29.8299C40.7586 29.4101 40.9182 29.0352 41.1167 28.641C42.4556 25.9825 43.7725 23.3126 45.099 20.6401C45.7905 20.9276 45.4986 21.4136 45.5885 21.7655C45.8241 22.6828 45.6618 24.005 46.8075 24.2026C48.0547 24.4169 48.7621 23.3347 49.2393 22.278C51.5643 17.1287 53.8743 11.9724 56.1914 6.81954C56.3581 6.4482 56.5372 6.08216 56.8732 5.37036C59.6949 9.18779 62.3789 12.7856 65.0047 16.4248C65.2481 16.7627 65.1643 17.3642 65.1652 17.844C65.174 24.558 65.1264 31.272 65.2067 37.9843C65.2243 39.4608 64.8283 39.9345 63.3447 39.8366C61.3919 39.7069 59.4188 39.7131 57.466 39.8357C56.0794 39.923 55.6781 39.5031 55.694 38.1051C55.7619 32.0914 55.7143 26.0769 55.7001 20.0632C55.6993 19.5834 55.6287 19.1044 55.5908 18.6246C55.4611 18.5955 55.3332 18.5646 55.2053 18.5338Z" fill="#505050"/>
<path d="M111.391 15.4194C114.512 17.3925 115.307 19.9742 115.115 23.2553C114.86 27.6426 114.997 32.058 115.084 36.4584C115.111 37.875 114.754 38.2551 113.269 38.3901C110.77 38.6168 109.429 37.7224 108.208 35.5385C104.911 29.6395 101.317 23.9063 97.8391 18.1078C97.5877 17.6889 97.354 17.2558 97.0603 16.8686C96.6925 16.3843 96.3917 15.5499 95.7249 15.7096C94.8799 15.9116 95.1013 16.8324 95.0995 17.4895C95.0775 23.639 95.0916 29.7877 95.0501 35.9372C95.0457 36.5361 95.5908 37.7771 94.2042 37.4692C93.1705 37.2399 91.3377 38.2957 91.3518 35.8737C91.4056 26.7896 91.387 17.7047 91.3518 8.62071C91.3474 7.56227 91.5908 7.00306 92.7418 7.18212C92.8098 7.1927 92.8812 7.183 92.9518 7.18388C95.4691 7.19976 98.3251 6.4809 100.408 7.43879C102.506 8.40373 103.118 11.4732 104.399 13.6095C105.795 15.9398 107.142 18.3001 108.483 20.6631C108.934 21.4586 109.502 22.0849 110.468 21.8309C111.406 21.5848 111.378 20.7036 111.386 19.9336C111.403 18.4915 111.391 17.0476 111.391 15.4194Z" fill="#505050"/>
<path d="M108.447 0.385986C116.887 0.393925 125.326 0.400981 133.765 0.408919C136.075 0.992823 136.29 1.67375 134.85 3.42017C132.796 5.91102 130.182 6.56549 127.055 6.31587C124.248 6.09272 124.234 6.26824 124.234 9.13484C124.234 19.8744 124.247 30.6149 124.224 41.3545C124.217 44.4469 123.848 44.8791 121.545 44.9832C121.128 44.7336 120.721 44.4681 120.294 44.2379C118.145 43.0789 117.304 41.4551 117.346 38.8628C117.519 28.2008 117.388 17.5344 117.454 6.86979C117.463 5.38974 117.062 4.96637 115.603 5.05281C113.447 5.1807 111.277 5.08985 109.113 5.08191C108.214 5.07838 107.237 5.21069 106.681 4.26339C106.106 3.2861 106.845 2.55666 107.286 1.81664C107.598 1.29448 108.055 0.859636 108.447 0.385986Z" fill="#505050"/>
<path d="M0.906738 36.1083C0.912912 26.1732 0.919086 16.2389 0.926142 6.30367C1.87344 4.65428 3.45845 4.20091 5.02229 4.82451C6.48999 5.41018 6.76077 6.92021 6.74842 8.52198C6.68315 16.9771 6.75371 25.4331 6.68315 33.8874C6.67168 35.3092 6.95834 35.8014 8.47808 35.7467C11.903 35.6232 15.335 35.6947 18.7634 35.715C20.8494 35.7273 22.5711 38.6415 21.5983 40.4497C21.286 41.0301 20.7568 40.829 20.3096 40.8298C15.2009 40.844 10.0922 40.8113 4.98436 40.8634C4.00795 40.8731 3.45228 40.5555 3.01126 39.7158C2.3665 38.4836 1.61413 37.3079 0.906738 36.1083Z" fill="#505050"/>
<path d="M39.1198 23.4264C38.7988 21.3659 39.2715 19.7377 38.5968 18.0963C37.2887 18.9968 36.9959 20.2387 37.0003 21.6632C37.0171 27.661 37.0074 33.6588 37.0074 40.3472C34.8808 37.6015 31.9198 36.4681 32.0653 32.5404C32.3741 24.2378 32.1976 15.915 32.1236 7.60099C32.1103 6.11565 32.5328 5.67287 33.9926 5.75578C36.0848 5.87486 38.1919 5.8484 40.2867 5.76196C41.3205 5.71962 41.8444 6.10595 42.0676 7.04796C42.0834 7.11587 42.109 7.18114 42.1319 7.2473C42.991 9.74697 44.9527 12.5033 44.4429 14.6828C43.7434 17.6808 41.1723 20.2414 39.1198 23.4264Z" fill="#505050"/>
<path d="M163.959 5.5354C164.07 6.11842 163.963 6.64499 163.556 7.09395C159.925 7.87719 158.075 10.4527 156.884 13.6942C156.607 14.4492 156.568 15.3189 155.325 15.251C154.319 15.1963 153.799 15.0463 153.36 13.9456C152.586 12.0042 150.745 11.1178 148.806 10.578C146.395 9.90674 143.96 10.0338 141.537 10.548C139.144 11.056 138.477 12.9242 139.982 14.9096C141.173 16.4823 142.898 17.2876 144.676 17.9359C146.446 18.5815 148.303 18.9969 150.064 19.6629C154.787 21.449 157.124 24.8942 156.773 29.3872C156.312 35.296 153.327 39.3286 148.238 40.1374C142.36 41.0715 136.62 40.6287 131.838 36.455C131.215 35.9116 130.678 36.0069 130.129 36.2336C128.858 36.7575 128.141 36.1798 127.265 35.2977C126.081 34.1052 125.954 33.1288 126.826 31.6735C127.897 29.8856 128.64 27.9046 129.589 26.0399C129.862 25.5028 129.905 24.3703 130.901 24.8254C131.899 25.2814 133.436 24.9727 133.761 26.5321C133.946 27.4203 134.058 28.3235 134.194 29.2214C134.969 34.3663 140.45 38.2446 145.56 37.2638C147.932 36.8086 149.829 34.8973 150.128 32.6631C150.458 30.1961 149.529 28.6067 146.875 27.4777C145.469 26.8796 143.973 26.4748 142.494 26.0629C136.76 24.4664 133.565 20.1647 134.161 14.8832C134.505 11.8349 136.06 9.6483 138.787 8.3676C142.244 6.74466 145.882 6.32129 149.634 7.15922C150.794 7.41853 151.974 7.64169 153.085 8.04478C154.592 8.59163 155.747 8.51313 156.506 6.88843C156.923 5.99406 157.683 5.68446 158.729 5.71181C160.469 5.75944 162.215 5.60596 163.959 5.5354Z" fill="#505050"/>
</svg>
