<svg width="192" height="50" viewBox="0 0 192 50" fill="none" xmlns="http://www.w3.org/2000/svg">
<path d="M26.471 18.676L43.698 7.63904L42.828 18.302L37.188 21.031L36.94 24.065L42.652 20.465L42.014 28.276L37.096 30.635L25.646 29.701" fill="#505050"/>
<path d="M17.227 18.676L0 7.63904L0.87 18.302L6.51 21.031L6.757 24.065L1.046 20.465L1.684 28.276L6.601 30.635L18.052 29.701" fill="#505050"/>
<path d="M29.755 32.024C30.48 32.219 30.998 32.749 30.998 33.376C30.998 33.688 30.87 33.977 30.649 34.21C30.427 34.447 30.119 34.627 29.755 34.725C29.563 34.778 29.353 34.808 29.135 34.808C28.917 34.808 28.711 34.778 28.515 34.725H23.864V34.684L24.127 32.024H28.515C28.71 31.971 28.917 31.941 29.135 31.941C29.353 31.941 29.564 31.971 29.755 32.024Z" fill="#505050"/>
<path d="M21.901 0L26.619 6.949L24.128 32.024H23.595H20.203H19.673L17.179 6.949L21.901 0Z" fill="#505050"/>
<path d="M24.128 32.024L23.865 34.683L21.901 34.5891L19.936 34.683L19.673 32.024H20.203H23.595H24.128Z" fill="#505050"/>
<path d="M23.865 34.683V34.724H23.595V43.758C23.629 43.893 23.651 44.036 23.651 44.182C23.651 45.155 22.862 45.94 21.893 45.94C20.924 45.94 20.135 45.155 20.135 44.182C20.135 44.017 20.161 43.859 20.203 43.705V34.723H19.936V34.682L21.901 34.588L23.865 34.683Z" fill="#505050"/>
<path d="M19.936 34.683V34.724H15.285C15.09 34.777 14.883 34.807 14.661 34.807C14.443 34.807 14.237 34.777 14.041 34.724C13.316 34.529 12.798 33.999 12.798 33.375C12.798 33.059 12.929 32.774 13.147 32.537C13.369 32.3 13.68 32.12 14.041 32.022C14.236 31.969 14.443 31.939 14.661 31.939C14.883 31.939 15.089 31.969 15.285 32.022H19.673L19.936 34.683Z" fill="#505050"/>
<path d="M73.3179 19.3814H72.2875C71.9226 16.8699 71.2571 15.2384 70.2911 14.4871C69.3037 13.6928 68.0908 13.2957 66.6526 13.2957H65.8154V33.195H69.1963V34H58.3451V33.195H61.7261V13.2957H60.8245C59.3862 13.2957 58.1734 13.6821 57.1859 14.4549C56.22 15.2492 55.5545 16.8913 55.1896 19.3814H54.1592L54.5134 12.4907H72.9637L73.3179 19.3814ZM91.9581 34H81.7831V33.195H85.0996L83.1999 27.4957H76.2126L74.2162 33.195H77.5006V34H70.6743V33.195H73.2502L80.9459 12.0077H82.0729L89.4144 33.195H91.9581V34ZM82.8135 26.6907L79.8189 17.7071L76.5668 26.6907H82.8135ZM106.361 13.2957H103.689L96.2185 34.483H95.2525L87.5891 13.2957H84.9165V12.4907H95.1237V13.2957H91.8072L97.2811 28.3651L102.723 13.2957H99.3741V12.4907H106.361V13.2957ZM125.282 27.0771L124.992 34H106.703V33.195H109.89V13.2957H106.703V12.4907H124.445L124.67 18.2866H123.768C123.296 16.2259 122.609 14.8842 121.708 14.2617C120.806 13.6177 119.464 13.2957 117.683 13.2957H113.98V22.537H114.849C116.481 22.537 117.554 22.1506 118.069 21.3778C118.606 20.5835 118.874 19.6605 118.874 18.6086H119.776V27.5923H118.874C118.874 26.4546 118.617 25.4671 118.101 24.6299C117.565 23.7713 116.481 23.342 114.849 23.342H113.98V33.195H118.295C120.377 33.195 121.826 32.6906 122.641 31.6816C123.457 30.6727 124.026 29.1379 124.348 27.0771H125.282ZM147.86 34C146.787 34.2576 145.821 34.3864 144.963 34.3864C144.061 34.3864 143.277 34.2361 142.612 33.9356C141.367 33.356 140.583 32.3042 140.261 30.78L140.165 29.3955C140.1 28.3651 140.004 27.4528 139.875 26.6585C139.746 25.8643 139.521 25.1881 139.199 24.6299C138.512 23.4922 137.385 22.9234 135.818 22.9234H134.144V33.195H137.331V34H126.866V33.195H130.054V13.2957H126.866V12.4907H138.201C140.583 12.4907 142.354 12.8771 143.514 13.6499C144.716 14.4012 145.317 15.6463 145.317 17.3851C145.317 18.8018 144.759 19.9396 143.642 20.7982C142.505 21.6783 140.798 22.2901 138.523 22.6336C141.206 23.1917 142.902 24.1684 143.61 25.5637C143.975 26.2721 144.233 27.0449 144.383 27.8821C144.555 28.7193 144.651 29.6209 144.673 30.5869L144.705 32.1646C144.834 32.6584 145.091 33.0018 145.478 33.195C145.671 33.3023 146.014 33.356 146.508 33.356C146.852 33.356 147.302 33.3238 147.86 33.2594V34ZM140.905 17.7393C140.905 16.1722 140.648 15.0452 140.133 14.3583C139.574 13.6499 138.63 13.2957 137.299 13.2957H134.144V22.1184H136.88C138.276 22.1184 139.295 21.7642 139.939 21.0558C140.583 20.3474 140.905 19.2419 140.905 17.7393ZM171.259 13.2957H168.071V34.4186H167.105L153.453 13.9075V33.195H156.608V34H149.267V33.195H152.423V13.2957H149.267V12.4907H157.51L167.041 26.5619V13.2957H163.95V12.4907H171.259V13.2957ZM191.009 34H180.834V33.195H184.151L182.251 27.4957H175.264L173.267 33.195H176.552V34H169.725V33.195H172.301L179.997 12.0077H181.124L188.466 33.195H191.009V34ZM181.865 26.6907L178.87 17.7071L175.618 26.6907H181.865Z" fill="#505050"/>
<path d="M112.86 45.91C112.86 46.5833 112.667 47.1233 112.28 47.53C111.887 47.9433 111.383 48.15 110.77 48.15C110.477 48.15 110.22 48.1067 110 48.02C109.747 47.9267 109.527 47.8 109.34 47.64L108.86 48.06H108.69V46.07H108.98C109.08 46.57 109.283 47 109.59 47.36C109.897 47.72 110.3 47.9 110.8 47.9C111.227 47.9 111.583 47.7667 111.87 47.5C112.163 47.2267 112.31 46.8967 112.31 46.51C112.31 46.09 112.147 45.78 111.82 45.58C111.473 45.3733 111.04 45.2 110.52 45.06C109.893 44.8933 109.44 44.65 109.16 44.33C108.88 44.0033 108.74 43.5767 108.74 43.05C108.74 42.5033 108.91 42.0533 109.25 41.7C109.603 41.3467 110.04 41.17 110.56 41.17C110.84 41.17 111.1 41.21 111.34 41.29C111.58 41.37 111.803 41.4933 112.01 41.66L112.39 41.27H112.58V43.16H112.26C112.2 42.6667 112.017 42.25 111.71 41.91C111.403 41.5833 111.013 41.42 110.54 41.42C110.2 41.42 109.907 41.5333 109.66 41.76C109.413 41.9867 109.29 42.2567 109.29 42.57C109.29 42.95 109.417 43.1967 109.67 43.31C109.93 43.4367 110.307 43.5633 110.8 43.69C111.58 43.89 112.117 44.1533 112.41 44.48C112.71 44.82 112.86 45.2967 112.86 45.91ZM120.461 48H117.211V47.75H118.201V44.69H115.511V47.75H116.501V48H113.251V47.75H114.241V41.57H113.251V41.32H116.501V41.57H115.511V44.45H118.201V41.57H117.211V41.32H120.461V41.57H119.471V47.75H120.461V48ZM126.497 44.66C126.497 45.6 126.184 46.4133 125.557 47.1C124.924 47.8 124.197 48.15 123.377 48.15C122.551 48.15 121.827 47.8033 121.207 47.11C120.581 46.4167 120.267 45.6 120.267 44.66C120.267 43.7267 120.577 42.9133 121.197 42.22C121.824 41.52 122.551 41.17 123.377 41.17C124.197 41.17 124.924 41.5167 125.557 42.21C126.184 42.9033 126.497 43.72 126.497 44.66ZM125.027 45.85V43.47C125.027 42.81 124.894 42.3 124.627 41.94C124.347 41.5933 123.931 41.42 123.377 41.42C122.817 41.42 122.404 41.5933 122.137 41.94C121.871 42.2867 121.737 42.7967 121.737 43.47V45.85C121.737 46.5233 121.871 47.0333 122.137 47.38C122.404 47.7267 122.817 47.9 123.377 47.9C123.937 47.9 124.351 47.7267 124.617 47.38C124.891 47.0267 125.027 46.5167 125.027 45.85ZM132.311 43.13C132.311 43.7167 132.074 44.17 131.601 44.49C131.121 44.81 130.481 44.97 129.681 44.97H128.551V47.75H129.621V48H126.291V47.75H127.281V41.57H126.291V41.32H129.631C130.484 41.32 131.144 41.4667 131.611 41.76C132.078 42.06 132.311 42.5167 132.311 43.13ZM130.901 43.1C130.901 42.5867 130.814 42.2033 130.641 41.95C130.468 41.6967 130.181 41.57 129.781 41.57H128.551V44.72H129.741C130.148 44.72 130.441 44.5867 130.621 44.32C130.808 44.0533 130.901 43.6467 130.901 43.1Z" fill="#505050"/>
</svg>
