<svg width="150" height="54" viewBox="0 0 150 54" fill="none" xmlns="http://www.w3.org/2000/svg">
<path d="M33.677 14.877V15.733C32.707 15.762 31.972 15.869 31.473 16.054C30.974 16.24 30.639 16.582 30.467 17.081C30.296 17.58 30.21 18.358 30.21 19.413V40.637C30.21 41.664 30.296 42.434 30.467 42.948C30.638 43.461 30.973 43.804 31.473 43.975C31.972 44.146 32.707 44.26 33.677 44.317V45.173C33.02 45.116 32.201 45.081 31.217 45.066C30.233 45.052 29.241 45.045 28.243 45.045C27.131 45.045 26.089 45.052 25.119 45.066C24.149 45.081 23.365 45.116 22.765 45.173V44.317C23.735 44.26 24.47 44.146 24.969 43.975C25.468 43.804 25.803 43.461 25.974 42.948C26.145 42.434 26.231 41.664 26.231 40.637V17.103L26.402 17.231L15.919 45.387H15.234L4.451 17.616V40.209C4.451 41.236 4.543 42.042 4.729 42.627C4.914 43.212 5.285 43.626 5.842 43.868C6.398 44.111 7.232 44.261 8.345 44.318V45.174C7.831 45.117 7.161 45.082 6.334 45.067C5.506 45.053 4.722 45.046 3.98 45.046C3.267 45.046 2.547 45.053 1.819 45.067C1.092 45.082 0.485 45.117 0 45.174V44.318C0.97 44.261 1.704 44.111 2.204 43.868C2.703 43.626 3.039 43.212 3.21 42.627C3.381 42.042 3.467 41.236 3.467 40.209V19.413C3.467 18.358 3.382 17.581 3.21 17.081C3.039 16.582 2.703 16.24 2.204 16.054C1.705 15.869 0.97 15.762 0 15.733V14.877C0.485 14.906 1.091 14.935 1.819 14.963C2.546 14.991 3.267 15.006 3.98 15.006C4.607 15.006 5.256 14.992 5.927 14.963C6.597 14.935 7.161 14.906 7.617 14.877L17.33 40.466L16.603 40.808L26.231 15.006C26.573 15.006 26.908 15.006 27.237 15.006C27.565 15.006 27.9 15.006 28.243 15.006C29.241 15.006 30.233 14.992 31.217 14.963C32.2 14.935 33.02 14.906 33.677 14.877Z" fill="#505050"/>
<path d="M42.234 45.4719C40.379 45.4719 39.031 45.0089 38.19 44.0809C37.348 43.1539 36.928 41.9199 36.928 40.3789C36.928 39.1809 37.22 38.1899 37.805 37.4049C38.39 36.6209 39.138 35.9789 40.052 35.4799C40.964 34.9809 41.927 34.5529 42.94 34.1959C43.952 33.8399 44.915 33.4899 45.828 33.1479C46.741 32.8059 47.489 32.4209 48.074 31.9929C48.659 31.5649 48.951 31.0229 48.951 30.3669V27.7139C48.951 26.5159 48.773 25.6029 48.416 24.9749C48.059 24.3479 47.582 23.9269 46.983 23.7129C46.384 23.4989 45.713 23.3919 44.972 23.3919C44.259 23.3919 43.496 23.4919 42.683 23.6909C41.87 23.8909 41.221 24.3049 40.736 24.9319C41.278 25.0459 41.748 25.3319 42.148 25.7879C42.547 26.2449 42.747 26.8299 42.747 27.5419C42.747 28.2559 42.518 28.8189 42.062 29.2319C41.605 29.6459 41.02 29.8529 40.308 29.8529C39.48 29.8529 38.875 29.5889 38.489 29.0609C38.104 28.5329 37.911 27.9419 37.911 27.2849C37.911 26.5429 38.096 25.9439 38.467 25.4869C38.837 25.0309 39.308 24.6029 39.879 24.2039C40.535 23.7479 41.383 23.3549 42.425 23.0269C43.466 22.6999 44.643 22.5349 45.955 22.5349C47.124 22.5349 48.123 22.6709 48.95 22.9409C49.777 23.2119 50.461 23.6039 51.004 24.1179C51.746 24.8029 52.23 25.6369 52.459 26.6209C52.687 27.6049 52.801 28.7819 52.801 30.1509V42.0459C52.801 42.7309 52.9 43.2379 53.1 43.5649C53.299 43.8929 53.642 44.0569 54.127 44.0569C54.526 44.0569 54.876 43.9719 55.175 43.7999C55.475 43.6289 55.767 43.4149 56.052 43.1579L56.523 43.8849C55.924 44.3419 55.353 44.7199 54.811 45.0189C54.269 45.3179 53.541 45.4679 52.629 45.4679C51.145 45.4679 50.161 45.0829 49.677 44.3129C49.191 43.5419 48.95 42.6589 48.95 41.6599C48.037 43.1729 47.003 44.1849 45.848 44.6979C44.695 45.2159 43.489 45.4719 42.234 45.4719ZM44.117 43.7609C44.973 43.7609 45.814 43.5119 46.642 43.0119C47.469 42.5129 48.239 41.6789 48.953 40.5089V32.1219C48.525 32.7499 47.862 33.2489 46.963 33.6199C46.064 33.9909 45.137 34.3979 44.182 34.8399C43.226 35.2819 42.406 35.8819 41.722 36.6369C41.037 37.3929 40.695 38.4699 40.695 39.8679C40.695 41.1799 41.023 42.1569 41.679 42.7989C42.334 43.4399 43.147 43.7609 44.117 43.7609Z" fill="#505050"/>
<path d="M64.613 11.626V41.194C64.613 42.392 64.862 43.205 65.362 43.633C65.861 44.061 66.695 44.275 67.865 44.275V45.174C67.379 45.146 66.645 45.11 65.661 45.067C64.677 45.024 63.685 45.003 62.687 45.003C61.717 45.003 60.733 45.024 59.735 45.067C58.736 45.11 57.994 45.146 57.51 45.174V44.275C58.679 44.275 59.514 44.061 60.013 43.633C60.512 43.205 60.762 42.392 60.762 41.194V16.76C60.762 15.476 60.533 14.528 60.077 13.914C59.62 13.301 58.765 12.994 57.51 12.994V12.096C58.423 12.181 59.307 12.224 60.163 12.224C60.99 12.224 61.782 12.174 62.538 12.074C63.293 11.975 63.985 11.825 64.613 11.626Z" fill="#505050"/>
<path d="M76.851 11.626V41.194C76.851 42.392 77.1 43.205 77.6 43.633C78.099 44.061 78.933 44.275 80.103 44.275V45.174C79.617 45.146 78.883 45.11 77.899 45.067C76.915 45.024 75.923 45.003 74.925 45.003C73.955 45.003 72.971 45.024 71.973 45.067C70.974 45.11 70.232 45.146 69.748 45.174V44.275C70.917 44.275 71.752 44.061 72.251 43.633C72.75 43.205 73 42.392 73 41.194V16.76C73 15.476 72.771 14.528 72.315 13.914C71.858 13.301 71.003 12.994 69.748 12.994V12.096C70.661 12.181 71.545 12.224 72.401 12.224C73.228 12.224 74.02 12.174 74.776 12.074C75.531 11.975 76.223 11.825 76.851 11.626Z" fill="#505050"/>
<path d="M102.182 23.136V23.992C101.64 24.05 101.14 24.292 100.684 24.719C100.228 25.147 99.799 25.903 99.401 26.987L92.383 45.387H91.656L83.783 26.431C83.241 25.319 82.706 24.641 82.178 24.398C81.65 24.156 81.215 24.034 80.873 24.034V23.136C81.5 23.221 82.156 23.286 82.841 23.328C83.526 23.37 84.267 23.392 85.066 23.392C85.95 23.392 86.885 23.364 87.869 23.306C88.853 23.249 89.773 23.192 90.629 23.135V24.033C89.915 24.033 89.281 24.083 88.725 24.183C88.169 24.283 87.819 24.583 87.677 25.081C87.534 25.58 87.705 26.429 88.19 27.627L93.453 40.678L93.196 40.764L98.074 28.013C98.615 26.587 98.673 25.589 98.245 25.018C97.817 24.448 96.847 24.105 95.335 23.991V23.135C96.077 23.163 96.697 23.192 97.197 23.22C97.696 23.249 98.273 23.263 98.93 23.263C99.586 23.263 100.178 23.249 100.706 23.22C101.233 23.194 101.726 23.165 102.182 23.136ZM92.383 45.387L90.928 49.11C90.386 50.507 89.7731 51.506 89.0881 52.105C88.6311 52.533 88.089 52.825 87.462 52.982C86.834 53.138 86.264 53.217 85.75 53.217C85.208 53.217 84.716 53.117 84.274 52.917C83.832 52.717 83.482 52.425 83.226 52.04C82.97 51.655 82.841 51.191 82.841 50.649C82.841 49.965 83.04 49.415 83.44 49.002C83.839 48.588 84.395 48.381 85.109 48.381C85.708 48.381 86.222 48.552 86.65 48.895C87.078 49.237 87.292 49.736 87.292 50.393C87.292 50.877 87.1781 51.277 86.9501 51.591C86.7211 51.904 86.451 52.147 86.137 52.318C86.194 52.346 86.244 52.361 86.287 52.361C86.33 52.361 86.3651 52.361 86.3941 52.361C87.1641 52.361 87.849 52.097 88.448 51.569C89.047 51.041 89.574 50.193 90.031 49.023L91.572 45.044L92.383 45.387Z" fill="#505050"/>
<path d="M118.228 22.5369C119.312 22.5369 120.218 22.6799 120.945 22.9649C121.672 23.2509 122.278 23.6499 122.764 24.1629C123.305 24.7339 123.691 25.4459 123.919 26.3019C124.147 27.1579 124.261 28.3129 124.261 29.7679V41.1929C124.261 42.3909 124.51 43.2039 125.01 43.6319C125.509 44.0599 126.343 44.2739 127.513 44.2739V45.1729C127.028 45.1449 126.286 45.1089 125.288 45.0659C124.289 45.0229 123.32 45.0019 122.378 45.0019C121.437 45.0019 120.517 45.0229 119.618 45.0659C118.719 45.1089 118.041 45.1449 117.585 45.1729V44.2739C118.612 44.2739 119.339 44.0599 119.767 43.6319C120.195 43.2039 120.409 42.3909 120.409 41.1929V28.8269C120.409 27.9429 120.337 27.1299 120.195 26.3879C120.052 25.6469 119.731 25.0479 119.232 24.5909C118.733 24.1349 117.97 23.9059 116.943 23.9059C115.146 23.9059 113.698 24.6549 112.6 26.1519C111.501 27.6499 110.953 29.4969 110.953 31.6929V41.1919C110.953 42.3899 111.167 43.2029 111.595 43.6309C112.023 44.0589 112.751 44.2729 113.778 44.2729V45.1719C113.321 45.1439 112.644 45.1079 111.745 45.0649C110.846 45.0219 109.926 45.0009 108.985 45.0009C108.044 45.0009 107.074 45.0219 106.075 45.0649C105.076 45.1079 104.334 45.1439 103.85 45.1719V44.2729C105.019 44.2729 105.854 44.0589 106.353 43.6309C106.852 43.2029 107.102 42.3899 107.102 41.1919V27.7999C107.102 26.5159 106.873 25.5679 106.417 24.9539C105.96 24.3409 105.104 24.0339 103.85 24.0339V23.1359C104.762 23.2209 105.647 23.2639 106.503 23.2639C107.33 23.2639 108.122 23.2139 108.878 23.1139C109.634 23.0139 110.325 22.8649 110.953 22.6639V27.7129C111.694 25.7729 112.729 24.4249 114.055 23.6689C115.383 22.9149 116.773 22.5369 118.228 22.5369Z" fill="#505050"/>
<path d="M135.13 45.4719C133.275 45.4719 131.927 45.0089 131.086 44.0809C130.244 43.1539 129.824 41.9199 129.824 40.3789C129.824 39.1809 130.116 38.1899 130.701 37.4049C131.286 36.6209 132.034 35.9789 132.948 35.4799C133.86 34.9809 134.823 34.5529 135.836 34.1959C136.848 33.8399 137.811 33.4899 138.724 33.1479C139.637 32.8059 140.385 32.4209 140.97 31.9929C141.555 31.5649 141.847 31.0229 141.847 30.3669V27.7139C141.847 26.5159 141.669 25.6029 141.312 24.9749C140.955 24.3479 140.478 23.9269 139.879 23.7129C139.28 23.4989 138.609 23.3919 137.868 23.3919C137.155 23.3919 136.392 23.4919 135.579 23.6909C134.766 23.8909 134.117 24.3049 133.632 24.9319C134.174 25.0459 134.644 25.3319 135.044 25.7879C135.443 26.2449 135.643 26.8299 135.643 27.5419C135.643 28.2559 135.414 28.8189 134.958 29.2319C134.501 29.6459 133.916 29.8529 133.204 29.8529C132.377 29.8529 131.771 29.5889 131.385 29.0609C131 28.5329 130.807 27.9419 130.807 27.2849C130.807 26.5429 130.992 25.9439 131.363 25.4869C131.733 25.0309 132.204 24.6029 132.775 24.2039C133.431 23.7479 134.279 23.3549 135.321 23.0269C136.362 22.6999 137.539 22.5349 138.851 22.5349C140.02 22.5349 141.019 22.6709 141.846 22.9409C142.673 23.2119 143.357 23.6039 143.9 24.1179C144.642 24.8029 145.126 25.6369 145.355 26.6209C145.583 27.6049 145.697 28.7819 145.697 30.1509V42.0459C145.697 42.7309 145.796 43.2379 145.996 43.5649C146.195 43.8929 146.538 44.0569 147.023 44.0569C147.422 44.0569 147.772 43.9719 148.071 43.7999C148.371 43.6289 148.663 43.4149 148.948 43.1579L149.419 43.8849C148.82 44.3419 148.249 44.7199 147.707 45.0189C147.165 45.3179 146.437 45.4679 145.525 45.4679C144.041 45.4679 143.057 45.0829 142.573 44.3129C142.087 43.5419 141.846 42.6589 141.846 41.6599C140.933 43.1729 139.899 44.1849 138.744 44.6979C137.59 45.2159 136.385 45.4719 135.13 45.4719ZM137.012 43.7609C137.868 43.7609 138.709 43.5119 139.537 43.0119C140.364 42.5129 141.134 41.6789 141.848 40.5089V32.1219C141.42 32.7499 140.757 33.2489 139.858 33.6199C138.959 33.9909 138.032 34.3979 137.077 34.8399C136.121 35.2819 135.301 35.8819 134.617 36.6369C133.932 37.3929 133.59 38.4699 133.59 39.8679C133.59 41.1799 133.918 42.1569 134.574 42.7989C135.229 43.4399 136.042 43.7609 137.012 43.7609Z" fill="#505050"/>
<path d="M22.709 6.545C22.709 6.545 24.272 9.002 21.991 12.587C20.361 13.858 19.71 11.416 20.891 10.479L20.321 9.129L19.262 10.451C19.262 10.451 19.955 11.428 19.506 12.263C19.058 13.098 17.713 13.036 17.734 11.448C17.754 9.859 18.746 5.819 20.81 4.624C20.81 4.624 17.225 2.831 16.736 0C16.247 2.831 12.641 4.624 12.641 4.624C14.705 5.819 15.676 9.859 15.696 11.448C15.716 13.037 14.372 13.099 13.924 12.263C13.476 11.427 14.168 10.451 14.168 10.451L13.109 9.129L12.539 10.479C13.72 11.416 13.069 13.858 11.439 12.587C9.15802 9.002 10.721 6.545 10.721 6.545C7.68102 6.472 5.16602 3.54 5.16602 3.54L10.991 14.571H16.737H22.441L28.266 3.54C28.264 3.54 25.749 6.471 22.709 6.545Z" fill="#505050"/>
</svg>
