<svg width="190" height="30" viewBox="0 0 190 30" fill="none" xmlns="http://www.w3.org/2000/svg">
<path d="M133.781 8.00696H139.237C140.879 8.00696 142.053 8.47396 142.759 9.40696C143.465 10.34 143.818 12.039 143.818 14.503C143.818 16.96 143.463 18.657 142.755 19.594C142.046 20.531 140.874 20.999 139.238 20.999H133.782L133.781 8.00696ZM138.718 19.632C139.77 19.632 140.556 19.318 141.076 18.689C141.596 18.06 141.855 16.665 141.855 14.503C141.855 12.335 141.595 10.938 141.076 10.312C140.556 9.68596 139.77 9.37396 138.718 9.37396H135.735V19.633L138.718 19.632Z" fill="#505050"/>
<path d="M146.503 18.886C145.682 17.94 145.271 16.475 145.271 14.493C145.271 12.51 145.681 11.049 146.503 10.109C147.324 9.16897 148.585 8.69897 150.285 8.69897C151.991 8.69897 153.254 9.16897 154.072 10.109C154.89 11.049 155.299 12.51 155.299 14.493C155.299 16.475 154.89 17.94 154.072 18.886C153.254 19.832 151.992 20.305 150.285 20.305C148.585 20.306 147.325 19.833 146.503 18.886ZM152.489 18.03C153.066 17.405 153.355 16.229 153.355 14.503C153.355 12.777 153.066 11.603 152.489 10.981C151.912 10.359 151.177 10.048 150.285 10.048C149.393 10.048 148.659 10.359 148.081 10.981C147.504 11.603 147.215 12.777 147.215 14.503C147.215 16.229 147.504 17.404 148.081 18.03C148.658 18.656 149.393 18.968 150.285 18.968C151.177 18.968 151.912 18.656 152.489 18.03Z" fill="#505050"/>
<path d="M157.874 16.659C157.184 15.697 156.839 14.243 156.839 12.299C156.839 10.355 157.181 8.90501 157.864 7.94901C158.547 6.99301 159.572 6.51501 160.939 6.51501C162.184 6.51501 163.236 6.83601 164.096 7.47701C164.956 8.11901 165.386 8.77601 165.386 9.45001L164.549 10.432C164.549 9.77101 164.259 9.17902 163.678 8.65602C163.097 8.13302 162.403 7.87201 161.595 7.87201C160.735 7.87201 160.055 8.18501 159.555 8.81001C159.055 9.43501 158.804 10.602 158.804 12.308C158.804 14.015 159.054 15.181 159.555 15.806C160.055 16.431 160.735 16.744 161.595 16.744C162.403 16.744 163.098 16.481 163.678 15.955C164.259 15.429 164.549 14.832 164.549 14.165L165.405 15.214C165.405 15.907 164.975 16.561 164.115 17.177C163.255 17.793 162.203 18.101 160.958 18.101C159.591 18.102 158.563 17.621 157.874 16.659ZM158.509 21.648C157.659 21.087 157.182 20.116 157.08 18.737H158.995C159.04 19.34 159.176 19.823 159.404 20.185C159.632 20.547 159.946 20.814 160.347 20.984C160.748 21.154 161.208 21.239 161.728 21.239C162.581 21.239 163.265 21.008 163.778 20.546C164.291 20.084 164.548 19.195 164.548 17.88V8.94901L164.567 8.47902C164.609 7.44102 165.463 6.62001 166.502 6.62001V17.697C166.502 18.916 166.282 19.877 165.843 20.579C165.403 21.281 164.844 21.775 164.164 22.061C163.484 22.346 162.65 22.489 161.662 22.489C160.409 22.49 159.359 22.21 158.509 21.648Z" fill="#505050"/>
<path d="M170.76 21.225C170.282 21.119 169.868 20.938 169.519 20.681C169.169 20.424 168.903 20.073 168.72 19.627C168.537 19.181 168.446 18.618 168.446 17.938C168.446 17.284 168.536 16.74 168.715 16.307C168.895 15.874 169.153 15.531 169.49 15.277C169.827 15.024 170.236 14.842 170.717 14.733C171.198 14.624 171.737 14.57 172.334 14.57H176.058V13.925C176.058 13.251 175.946 12.708 175.721 12.294C175.496 11.88 175.176 11.577 174.759 11.384C174.342 11.192 173.848 11.095 173.277 11.095C172.783 11.095 172.34 11.182 171.949 11.355C171.558 11.528 171.235 11.806 170.982 12.187C170.728 12.569 170.554 13.077 170.457 13.712L168.552 13.202C168.655 12.573 168.845 12.041 169.125 11.605C169.404 11.169 169.751 10.816 170.164 10.546C170.578 10.276 171.048 10.079 171.574 9.95399C172.1 9.82899 172.665 9.766 173.268 9.766C174.282 9.766 175.141 9.907 175.847 10.189C176.553 10.471 177.09 10.924 177.459 11.546C177.828 12.168 178.012 12.993 178.012 14.019V21.275H176.385L176.221 19.831C176.138 19.991 175.993 20.162 175.788 20.341C175.583 20.521 175.32 20.689 174.999 20.846C174.678 21.003 174.298 21.132 173.859 21.231C173.42 21.33 172.921 21.38 172.363 21.38C171.772 21.384 171.237 21.331 170.76 21.225ZM174.33 19.887C174.776 19.743 175.143 19.558 175.432 19.334C175.721 19.11 175.92 18.879 176.029 18.641V15.667H172.786C172.459 15.667 172.151 15.697 171.862 15.758C171.573 15.819 171.322 15.928 171.107 16.085C170.892 16.242 170.724 16.465 170.602 16.754C170.48 17.043 170.419 17.412 170.419 17.861C170.419 18.323 170.478 18.698 170.597 18.987C170.716 19.276 170.884 19.5 171.102 19.661C171.32 19.822 171.574 19.935 171.862 20.003C172.151 20.07 172.459 20.104 172.786 20.104C173.369 20.104 173.884 20.032 174.33 19.887ZM173.704 8.998C173.527 8.927 173.372 8.847 173.237 8.757C173.102 8.667 172.968 8.589 172.833 8.521C172.698 8.454 172.544 8.42 172.371 8.42C172.204 8.42 172.068 8.451 171.962 8.511C171.856 8.572 171.778 8.648 171.726 8.737C171.675 8.827 171.646 8.91 171.639 8.987H170.638C170.651 8.897 170.673 8.793 170.705 8.674C170.737 8.555 170.787 8.435 170.854 8.313C170.921 8.191 171.016 8.07699 171.138 7.97099C171.26 7.86499 171.414 7.78 171.6 7.716C171.786 7.652 172.007 7.62 172.264 7.62C172.508 7.62 172.71 7.65399 172.87 7.72099C173.03 7.78799 173.176 7.867 173.308 7.957C173.439 8.047 173.577 8.125 173.722 8.193C173.866 8.26 174.038 8.29399 174.237 8.29399C174.391 8.29399 174.519 8.262 174.622 8.198C174.725 8.134 174.802 8.055 174.853 7.962C174.904 7.869 174.933 7.787 174.94 7.717H175.922C175.928 7.794 175.916 7.892 175.884 8.01C175.852 8.129 175.804 8.251 175.74 8.376C175.676 8.501 175.584 8.618 175.466 8.727C175.347 8.836 175.198 8.92599 175.018 8.99599C174.838 9.06699 174.617 9.102 174.354 9.102C174.097 9.104 173.881 9.069 173.704 8.998Z" fill="#505050"/>
<path d="M180.984 18.886C180.163 17.94 179.752 16.475 179.752 14.493C179.752 12.51 180.163 11.049 180.984 10.109C181.805 9.16897 183.066 8.69897 184.766 8.69897C186.472 8.69897 187.735 9.16897 188.553 10.109C189.371 11.049 189.78 12.51 189.78 14.493C189.78 16.475 189.371 17.94 188.553 18.886C187.735 19.832 186.473 20.305 184.766 20.305C183.066 20.306 181.805 19.833 180.984 18.886ZM186.97 18.03C187.548 17.405 187.836 16.229 187.836 14.503C187.836 12.777 187.547 11.603 186.97 10.981C186.393 10.359 185.658 10.048 184.766 10.048C183.874 10.048 183.14 10.359 182.562 10.981C181.985 11.603 181.696 12.777 181.696 14.503C181.696 16.229 181.985 17.404 182.562 18.03C183.14 18.656 183.874 18.968 184.766 18.968C185.658 18.968 186.393 18.656 186.97 18.03Z" fill="#505050"/>
<path d="M0 8.00696H5.456C7.098 8.00696 8.272 8.47396 8.978 9.40696C9.684 10.34 10.037 12.039 10.037 14.503C10.037 16.96 9.682 18.657 8.974 19.594C8.265 20.531 7.093 20.999 5.457 20.999H0V8.00696ZM4.936 19.632C5.988 19.632 6.774 19.318 7.294 18.689C7.814 18.06 8.073 16.665 8.073 14.503C8.073 12.335 7.813 10.938 7.294 10.312C6.774 9.68596 5.988 9.37396 4.936 9.37396H1.953V19.633L4.936 19.632Z" fill="#505050"/>
<path d="M12.722 18.886C11.901 17.94 11.49 16.475 11.49 14.493C11.49 12.51 11.9 11.049 12.722 10.109C13.543 9.16897 14.804 8.69897 16.504 8.69897C18.21 8.69897 19.473 9.16897 20.291 10.109C21.109 11.049 21.518 12.51 21.518 14.493C21.518 16.475 21.109 17.94 20.291 18.886C19.473 19.832 18.211 20.305 16.504 20.305C14.803 20.306 13.543 19.833 12.722 18.886ZM18.707 18.03C19.284 17.405 19.573 16.229 19.573 14.503C19.573 12.777 19.284 11.603 18.707 10.981C18.13 10.359 17.395 10.048 16.503 10.048C15.611 10.048 14.877 10.359 14.299 10.981C13.722 11.603 13.433 12.777 13.433 14.503C13.433 16.229 13.722 17.404 14.3 18.03C14.877 18.656 15.612 18.968 16.504 18.968C17.395 18.968 18.13 18.656 18.707 18.03Z" fill="#505050"/>
<path d="M24.0919 16.659C23.4019 15.697 23.0569 14.243 23.0569 12.299C23.0569 10.355 23.3989 8.90501 24.0819 7.94901C24.7649 6.99301 25.7899 6.51501 27.1569 6.51501C28.4019 6.51501 29.4539 6.83601 30.3139 7.47701C31.1739 8.11901 31.6039 8.77601 31.6039 9.45001L30.7669 10.432C30.7669 9.77101 30.4769 9.17902 29.8959 8.65602C29.3149 8.13302 28.6209 7.87201 27.8129 7.87201C26.9529 7.87201 26.2729 8.18501 25.7729 8.81001C25.2729 9.43501 25.0219 10.602 25.0219 12.308C25.0219 14.015 25.2719 15.181 25.7729 15.806C26.2729 16.431 26.9529 16.744 27.8129 16.744C28.6209 16.744 29.3159 16.481 29.8959 15.955C30.4769 15.429 30.7669 14.832 30.7669 14.165L31.6229 15.214C31.6229 15.907 31.1929 16.561 30.3329 17.177C29.4729 17.793 28.4209 18.101 27.1759 18.101C25.8089 18.102 24.7809 17.621 24.0919 16.659ZM24.7269 21.648C23.8769 21.087 23.3999 20.116 23.2979 18.737H25.2129C25.2579 19.34 25.3939 19.823 25.6219 20.185C25.8499 20.547 26.1639 20.814 26.5649 20.984C26.9659 21.154 27.4259 21.239 27.9459 21.239C28.7989 21.239 29.4829 21.008 29.9959 20.546C30.5089 20.084 30.7659 19.195 30.7659 17.88V8.94901L30.7849 8.47902C30.8269 7.44102 31.6809 6.62001 32.7199 6.62001V17.697C32.7199 18.916 32.4999 19.877 32.0609 20.579C31.6209 21.281 31.0619 21.775 30.3819 22.061C29.7019 22.346 28.8679 22.489 27.8799 22.489C26.6269 22.49 25.5769 22.21 24.7269 21.648Z" fill="#505050"/>
<path d="M36.7609 15.249C36.7609 16.577 36.9549 17.517 37.3429 18.069C37.7309 18.621 38.3259 18.896 39.1279 18.896C39.9359 18.896 40.6209 18.606 41.1829 18.025C41.7439 17.444 42.0249 16.705 42.0249 15.807L42.9779 16.375C42.9779 17.305 42.5689 18.186 41.7509 19.017C40.9329 19.848 39.8309 20.263 38.4449 20.263C37.1099 20.263 36.1719 19.828 35.6299 18.959C35.0879 18.09 34.8169 16.879 34.8169 15.326V8.74304H36.7609V15.249ZM42.0149 18.232V8.75304H43.9589V20.157H43.3649C42.5839 20.157 41.9609 19.507 41.9939 18.727L42.0149 18.232Z" fill="#505050"/>
<path d="M48.4049 8.09806C48.4049 8.57406 48.0189 8.95906 47.5439 8.95906H47.3129C46.8369 8.95906 46.4519 8.57306 46.4519 8.09806C46.4519 7.62206 46.8379 7.23706 47.3129 7.23706H47.5439C48.0199 7.23706 48.4049 7.62306 48.4049 8.09806ZM47.3129 10.3551H47.5439C48.0199 10.3551 48.4049 10.7411 48.4049 11.2161V20.9071C48.4049 21.3831 48.0189 21.7681 47.5439 21.7681H47.3129C46.8369 21.7681 46.4519 21.3821 46.4519 20.9071V11.2161C46.4519 10.7411 46.8369 10.3551 47.3129 10.3551Z" fill="#505050"/>
<path d="M51.385 8.85904H51.987C52.231 8.85904 52.44 9.03304 52.485 9.27304L52.812 11.017C52.818 11.048 52.821 11.079 52.821 11.111V19.757C52.821 20.037 52.5939 20.264 52.3139 20.264H51.3839C51.1039 20.264 50.877 20.037 50.877 19.757V9.36704C50.878 9.08604 51.105 8.85904 51.385 8.85904ZM58.029 13.747C58.029 12.425 57.831 11.489 57.437 10.937C57.043 10.385 56.444 10.109 55.642 10.109C54.84 10.109 54.16 10.404 53.602 10.994C53.211 11.407 52.957 11.896 52.84 12.46C52.768 12.808 52.374 12.979 52.073 12.789C51.911 12.687 51.818 12.501 51.838 12.311C51.923 11.493 52.34 10.717 53.087 9.98404C53.931 9.15604 55.016 8.74304 56.344 8.74304C57.666 8.74304 58.601 9.18704 59.15 10.076C59.699 10.965 59.973 12.185 59.973 13.738V19.756C59.973 20.036 59.7459 20.263 59.466 20.263H58.5359C58.2559 20.263 58.029 20.036 58.029 19.756V13.747Z" fill="#505050"/>
<path d="M108.705 29.618H86.0729C76.4489 29.618 68.6189 22.975 68.6189 14.809C68.6189 6.643 76.4489 0 86.0729 0H108.705C118.329 0 126.159 6.643 126.159 14.809C126.159 22.975 118.33 29.618 108.705 29.618ZM86.0739 2.188C77.8709 2.188 71.1979 7.85 71.1979 14.81C71.1979 21.77 77.8709 27.432 86.0739 27.432H108.706C116.909 27.432 123.582 21.77 123.582 14.81C123.582 7.85 116.909 2.188 108.706 2.188H86.0739Z" fill="#505050"/>
<path d="M123.947 8.04309H70.832C67.261 8.04309 64.366 10.9381 64.366 14.5091C64.366 18.0801 67.261 20.9751 70.832 20.9751H123.947C127.518 20.9751 130.413 18.0801 130.413 14.5091C130.413 10.9381 127.518 8.04309 123.947 8.04309ZM120 16.2581C119.823 16.5781 119.404 16.6751 119.1 16.4721L119.096 16.4701C118.824 16.2891 118.738 15.9291 118.896 15.6431C119.807 13.9891 119.727 12.4041 118.648 11.5081C117.316 10.4011 114.481 10.5751 111.407 13.5711C109.207 15.7151 106.784 16.8161 104.433 16.7631C102.583 16.7191 101.78 15.4851 101.004 14.2911C100.169 13.0071 99.305 11.6791 96.947 11.4311C93.441 11.0611 90.804 13.5881 88.685 15.6171C87.272 16.9711 86.121 18.0731 84.957 18.0731C84.806 18.0731 84.654 18.0541 84.502 18.0151C83.566 17.7751 82.888 16.8431 82.303 14.9931C81.74 13.2111 80.937 12.2101 79.917 12.0201C78.089 11.6791 75.681 13.8701 74.521 15.1641C74.297 15.4141 73.919 15.4471 73.657 15.2371C73.373 15.0101 73.34 14.5921 73.584 14.3211C74.661 13.1241 77.531 10.2881 80.149 10.7781C81.664 11.0611 82.794 12.3511 83.509 14.6131C84.06 16.3591 84.564 16.7271 84.816 16.7921C85.458 16.9551 86.603 15.8631 87.812 14.7051C89.998 12.6111 92.994 9.74209 97.08 10.1751C100.036 10.4861 101.16 12.2141 102.064 13.6031C102.841 14.7971 103.336 15.4741 104.464 15.5011C106.499 15.5511 108.576 14.5691 110.527 12.6671C114.181 9.10609 117.645 9.03209 119.457 10.5371C120.763 11.6201 121.378 13.7691 120 16.2581Z" fill="#505050"/>
</svg>
