<svg width="200" height="41" viewBox="0 0 200 41" fill="none" xmlns="http://www.w3.org/2000/svg">
<path d="M17.9719 15.6221V18.9094H11.4326V40.1873H7.40349V18.9094H0.828735V15.6221H17.9719Z" fill="#505050"/>
<path d="M25.5004 39.2508C24.016 38.4144 22.8492 37.2358 22.001 35.7159C21.1528 34.196 20.7286 32.4349 20.7286 30.4326C20.7286 28.4531 21.1646 26.6975 22.0365 25.1657C22.9084 23.634 24.0988 22.4563 25.6069 21.6308C27.1141 20.8062 28.7996 20.3939 30.6608 20.3939C32.5221 20.3939 34.2067 20.8071 35.7157 21.6308C37.2238 22.4563 38.4133 23.634 39.2852 25.1657C40.1571 26.6975 40.593 28.4531 40.593 30.4326C40.593 32.4121 40.1453 34.1678 39.2497 35.6986C38.3541 37.2313 37.1346 38.4144 35.591 39.2508C34.0474 40.0872 32.3446 40.5059 30.4834 40.5059C28.6467 40.5059 26.9848 40.0872 25.5004 39.2508ZM33.4003 36.2638C34.3077 35.7696 35.044 35.0278 35.6101 34.0385C36.1753 33.0483 36.4583 31.8469 36.4583 30.4326C36.4583 29.0183 36.1871 27.8233 35.6456 26.8449C35.1032 25.8674 34.3851 25.1311 33.4895 24.636C32.5939 24.1409 31.6283 23.8934 30.5908 23.8934C29.5532 23.8934 28.5939 24.1409 27.7102 24.636C26.8265 25.1302 26.1248 25.8674 25.6069 26.8449C25.0881 27.8233 24.8297 29.0192 24.8297 30.4326C24.8297 32.5305 25.3648 34.1505 26.4379 35.2927C27.51 36.4367 28.8588 37.0074 30.4852 37.0074C31.5209 37.0065 32.4929 36.7598 33.4003 36.2638Z" fill="#505050"/>
<path d="M58.5308 21.3486C59.744 21.9848 60.6923 22.9277 61.3758 24.1764C62.0593 25.426 62.4006 26.9332 62.4006 28.7006V40.1883H58.4061V29.3013C58.4061 27.5575 57.9701 26.2205 57.0982 25.2895C56.2263 24.3593 55.0359 23.8934 53.5287 23.8934C52.0206 23.8934 50.8247 24.3593 49.941 25.2895C49.0573 26.2205 48.6159 27.5575 48.6159 29.3013V40.1883H44.5858V20.7125H48.6159V22.9395C49.2748 22.1386 50.1176 21.5143 51.1424 21.0656C52.1672 20.6187 53.2575 20.3939 54.4124 20.3939C55.9442 20.3939 57.3167 20.7125 58.5308 21.3486Z" fill="#505050"/>
<path d="M67.4027 25.1657C68.2154 23.6576 69.323 22.4854 70.7246 21.649C72.1271 20.8126 73.6762 20.3939 75.3726 20.3939C76.9044 20.3939 78.2405 20.6943 79.3845 21.2949C80.5267 21.8965 81.4405 22.6438 82.124 23.5393V20.7116H86.1886V40.1873H82.124V37.2886C81.4405 38.2078 80.5103 38.9741 79.3317 39.5857C78.1531 40.1983 76.8097 40.505 75.3017 40.505C73.6288 40.505 72.0971 40.0754 70.7073 39.2153C69.3167 38.3553 68.2154 37.153 67.4027 35.6094C66.5899 34.0667 66.1831 32.3166 66.1831 30.3607C66.1831 28.4058 66.5899 26.6738 67.4027 25.1657ZM81.2939 26.9332C80.7406 25.9439 80.0152 25.1894 79.1196 24.6706C78.2241 24.1527 77.2584 23.8934 76.2209 23.8934C75.1833 23.8934 74.2177 24.1473 73.3221 24.6533C72.4266 25.1602 71.7021 25.9029 71.1488 26.8804C70.5945 27.8579 70.3178 29.0192 70.3178 30.3625C70.3178 31.705 70.5945 32.8836 71.1488 33.8966C71.7021 34.9095 72.4329 35.6813 73.3403 36.2119C74.2477 36.7425 75.2079 37.0074 76.2209 37.0074C77.2575 37.0074 78.2241 36.748 79.1196 36.2301C80.0152 35.7123 80.7397 34.9523 81.2939 33.9502C81.8473 32.9491 82.1249 31.776 82.1249 30.4335C82.1249 29.0911 81.8464 27.9234 81.2939 26.9332Z" fill="#505050"/>
<path d="M95.52 14.0322V40.1883H91.49V14.0322H95.52Z" fill="#505050"/>
<path d="M101.034 17.3895C100.538 16.8944 100.291 16.2819 100.291 15.5511C100.291 14.8212 100.538 14.2077 101.034 13.7126C101.528 13.2175 102.14 12.97 102.871 12.97C103.577 12.97 104.179 13.2175 104.674 13.7126C105.168 14.2068 105.415 14.8203 105.415 15.5511C105.415 16.2819 105.168 16.8944 104.674 17.3895C104.178 17.8837 103.577 18.1313 102.871 18.1313C102.141 18.1322 101.529 17.8847 101.034 17.3895ZM104.851 20.7124V40.1882H100.821V20.7124H104.851Z" fill="#505050"/>
<path d="M110.029 25.1658C110.842 23.6577 111.949 22.4855 113.351 21.6491C114.754 20.8127 116.315 20.394 118.035 20.394C119.306 20.394 120.561 20.6716 121.799 21.225C123.036 21.7792 124.02 22.5146 124.751 23.4338V14.0322H128.814V40.1883H124.751V37.2541C124.09 38.197 123.177 38.9751 122.011 39.5867C120.844 40.1993 119.507 40.506 117.999 40.506C116.303 40.506 114.754 40.0764 113.351 39.2163C111.949 38.3563 110.841 37.154 110.029 35.6104C109.217 34.0677 108.81 32.3176 108.81 30.3617C108.81 28.4058 109.217 26.6739 110.029 25.1658ZM123.92 26.9333C123.366 25.944 122.641 25.1895 121.745 24.6707C120.851 24.1528 119.883 23.8934 118.847 23.8934C117.81 23.8934 116.843 24.1474 115.948 24.6534C115.053 25.1603 114.328 25.903 113.775 26.8805C113.22 27.858 112.944 29.0193 112.944 30.3626C112.944 31.7051 113.22 32.8837 113.775 33.8966C114.327 34.9096 115.058 35.6814 115.965 36.212C116.873 36.7426 117.833 37.0074 118.846 37.0074C119.882 37.0074 120.849 36.7481 121.745 36.2302C122.64 35.7123 123.365 34.9524 123.919 33.9503C124.472 32.9492 124.75 31.776 124.75 30.4336C124.75 29.0912 124.474 27.9235 123.92 26.9333Z" fill="#505050"/>
<path d="M133.993 25.1657C134.807 23.6576 135.913 22.4854 137.316 21.649C138.717 20.8126 140.266 20.3939 141.963 20.3939C143.495 20.3939 144.832 20.6943 145.975 21.2949C147.118 21.8965 148.031 22.6438 148.714 23.5393V20.7116H152.779V40.1873H148.714V37.2886C148.031 38.2078 147.101 38.9741 145.922 39.5857C144.743 40.1974 143.4 40.505 141.893 40.505C140.219 40.505 138.688 40.0754 137.298 39.2153C135.907 38.3553 134.806 37.153 133.992 35.6094C133.179 34.0667 132.772 32.3166 132.772 30.3607C132.773 28.4058 133.18 26.6738 133.993 25.1657ZM147.884 26.9332C147.331 25.9439 146.606 25.1894 145.711 24.6706C144.815 24.1527 143.849 23.8934 142.812 23.8934C141.775 23.8934 140.809 24.1473 139.913 24.6533C139.018 25.1602 138.293 25.9029 137.739 26.8804C137.186 27.8579 136.908 29.0192 136.908 30.3625C136.908 31.705 137.186 32.8836 137.739 33.8966C138.292 34.9095 139.023 35.6813 139.931 36.2119C140.837 36.7425 141.797 37.0074 142.811 37.0074C143.848 37.0074 144.813 36.748 145.71 36.2301C146.605 35.7123 147.329 34.9523 147.883 33.9502C148.437 32.9491 148.714 31.776 148.714 30.4335C148.714 29.0911 148.438 27.9234 147.884 26.9332Z" fill="#505050"/>
<path d="M157.957 25.1658C158.771 23.6577 159.878 22.4855 161.28 21.6491C162.682 20.8127 164.243 20.394 165.964 20.394C167.236 20.394 168.49 20.6716 169.728 21.225C170.965 21.7792 171.949 22.5146 172.68 23.4338V14.0322H176.744V40.1883H172.68V37.2541C172.02 38.197 171.106 38.9751 169.94 39.5867C168.774 40.1984 167.436 40.506 165.928 40.506C164.232 40.506 162.683 40.0764 161.281 39.2163C159.879 38.3563 158.771 37.154 157.958 35.6104C157.146 34.0677 156.739 32.3176 156.739 30.3617C156.738 28.4058 157.145 26.6739 157.957 25.1658ZM171.849 26.9333C171.295 25.944 170.571 25.1895 169.675 24.6707C168.78 24.1528 167.813 23.8934 166.777 23.8934C165.739 23.8934 164.773 24.1474 163.878 24.6534C162.982 25.1603 162.258 25.903 161.704 26.8805C161.15 27.858 160.873 29.0193 160.873 30.3626C160.873 31.7051 161.15 32.8837 161.704 33.8966C162.257 34.9096 162.988 35.6814 163.895 36.212C164.802 36.7426 165.762 37.0074 166.776 37.0074C167.812 37.0074 168.778 36.7481 169.674 36.2302C170.569 35.7123 171.294 34.9524 171.848 33.9503C172.401 32.9492 172.679 31.776 172.679 30.4336C172.679 29.0912 172.402 27.9235 171.849 26.9333Z" fill="#505050"/>
<path d="M199.755 31.9526H184.874C184.991 33.5071 185.569 34.7567 186.606 35.6987C187.642 36.6416 188.915 37.113 190.423 37.113C192.591 37.113 194.121 36.2065 195.018 34.3917H199.365C198.776 36.1829 197.709 37.6491 196.166 38.7922C194.622 39.9353 192.707 40.5069 190.422 40.5069C188.56 40.5069 186.892 40.0882 185.421 39.2518C183.947 38.4154 182.792 37.2368 181.956 35.7169C181.119 34.197 180.701 32.4359 180.701 30.4327C180.701 28.4295 181.108 26.6684 181.92 25.1485C182.734 23.6286 183.876 22.4563 185.35 21.6318C186.822 20.8072 188.513 20.3949 190.422 20.3949C192.26 20.3949 193.897 20.7954 195.335 21.5963C196.771 22.3981 197.891 23.523 198.692 24.9719C199.493 26.4208 199.893 28.0882 199.893 29.974C199.896 30.7039 199.848 31.3628 199.755 31.9526ZM195.69 28.6998C195.667 27.2154 195.136 26.0258 194.1 25.1303C193.062 24.2356 191.778 23.7869 190.247 23.7869C188.856 23.7869 187.667 24.2283 186.677 25.1121C185.687 25.9958 185.098 27.1926 184.91 28.6998H195.69Z" fill="#505050"/>
<path d="M142.203 6.01483C142.227 4.57137 141.872 3.55385 141.138 2.96227C141.292 3.80232 141.292 4.48855 141.138 5.02098C140.618 4.29925 140.05 3.89697 139.435 3.81415C140.582 5.89743 141.15 7.48196 141.138 8.57138C139.931 7.44737 138.606 7.2344 137.163 7.93247C137.387 8.10994 137.63 8.2228 137.89 8.27013C138.15 8.31745 138.523 8.51313 139.009 8.85625C138.121 9.10471 137.53 9.60164 137.235 10.347C137.565 10.3944 137.844 10.3288 138.068 10.1514C138.293 9.97388 138.63 9.80824 139.08 9.65443C139.636 9.58344 140.014 9.59254 140.215 9.68082C140.417 9.77001 140.678 9.82553 140.996 9.84919C140.973 10.0622 140.896 10.2105 140.765 10.2933C140.043 11.157 139.546 11.8078 139.274 12.2456C139.002 12.6833 138.825 13.1302 138.742 13.5853C138.659 14.0412 138.653 14.3343 138.724 14.4635C138.866 14.5109 139.099 14.3989 139.425 14.1268C139.75 13.8547 140.156 13.1621 140.641 12.0499C140.593 12.9609 140.689 13.4815 140.925 13.6117C141.351 13.4342 141.517 12.8663 141.422 11.9079C141.612 12.3102 141.754 12.666 141.849 12.9727C142.25 12.7598 142.346 11.8842 142.133 10.3461C143.837 13.1384 144.122 15.1971 142.986 16.5222C142.619 16.6879 142.341 16.7379 142.151 16.6733C141.962 16.6078 141.808 16.5814 141.69 16.5932C141.193 16.7234 140.797 16.8972 140.5 17.1166C140.204 17.3359 139.779 17.4451 139.222 17.4451C138.607 17.3859 138.104 16.8954 137.714 15.9716C137.595 15.7823 137.454 15.6549 137.288 15.5903C137.122 15.5247 136.963 15.3627 136.809 15.1015C136.667 14.4626 136.832 13.7764 137.306 13.0428C137.579 12.6524 137.904 12.2974 138.282 11.978C139.276 11.2208 139.802 10.6292 139.861 10.2032C139.495 10.0849 139.033 10.2924 138.477 10.8249C137.341 11.9607 136.336 12.4394 135.461 12.2628C135.117 12.0617 134.922 11.8961 134.875 11.7659C134.827 11.6358 134.75 11.5111 134.644 11.3928C134.477 11.3099 134.182 11.1088 133.755 10.7894C133.566 10.5527 133.448 10.2633 133.4 9.91927C133.4 9.43418 133.471 9.04919 133.613 8.76523C134.027 8.35113 134.306 7.98435 134.447 7.66489C134.554 7.47559 134.589 7.25989 134.554 7.01688C134.518 6.77479 134.535 6.55818 134.607 6.36887C134.665 6.25056 134.817 6.18594 135.06 6.1741C135.303 6.16227 135.465 6.06125 135.547 5.87194C135.63 5.68264 135.837 5.54703 136.169 5.4633C136.5 5.38048 136.959 5.40687 137.545 5.54339C138.131 5.67991 138.589 5.91381 138.921 6.24509C139.062 6.37524 139.258 6.43986 139.507 6.43986C139.459 5.9666 139.241 5.57342 138.85 5.25943C138.459 4.94635 138.111 4.60596 137.804 4.23827C137.27 3.81233 136.94 3.38639 136.809 2.96045C136.691 2.66466 136.767 2.3452 137.04 2.00209C137.324 1.77729 137.584 1.64714 137.821 1.61164C138.058 1.57615 138.217 1.52973 138.3 1.46966C138.619 0.949071 138.897 0.599583 139.133 0.423018C139.879 0.0444056 140.429 -0.0802815 140.783 0.0498665C142.333 0.747933 143.232 1.62347 143.482 2.67649C143.505 3.20891 143.334 3.67035 142.968 4.06079C142.79 4.40391 142.675 4.72427 142.621 5.01915C142.567 5.31677 142.428 5.64805 142.203 6.01483ZM145.186 3.03326C144.464 3.60118 143.854 4.37297 143.357 5.34953C142.86 6.32519 142.482 7.20164 142.221 7.97615C141.961 8.75067 141.955 9.18571 142.203 9.28036C142.605 9.41142 142.913 8.82803 143.126 7.53201C143.339 6.2369 144.025 4.73702 145.186 3.03326ZM144.05 9.70721C145.032 9.82553 145.776 10.0831 146.286 10.479C146.795 10.8758 147.043 11.2572 147.031 11.6239C146.771 11.5766 146.486 11.4619 146.179 11.2781C145.871 11.0952 145.421 10.9504 144.831 10.8431C145.564 11.6003 145.825 12.1919 145.611 12.6178C145.399 12.5705 145.143 12.3875 144.847 12.0681C144.539 11.7486 144.084 11.4355 143.481 11.127C144.215 12.1445 144.587 12.9727 144.599 13.6117C144.611 14.2506 144.7 14.7948 144.865 15.2444C145.197 15.8478 145.682 16.0845 146.321 15.9543C146.783 15.907 147.132 15.7414 147.368 15.4574C147.604 15.1734 147.974 15.0697 148.478 15.147C148.981 15.2244 149.374 15.0196 149.658 14.5345C149.835 14.2506 149.874 13.9311 149.774 13.5762C149.673 13.2212 149.7 12.9491 149.854 12.7598C150.007 12.5705 150.085 12.3102 150.085 11.9789C149.907 10.6892 149.161 9.88469 147.848 9.56524C146.392 9.34043 145.126 9.38776 144.05 9.70721ZM144.262 6.72473C145.931 5.87285 147.019 5.61256 147.528 5.94384C147.576 6.27513 147.054 6.64191 145.967 7.04419C145.173 7.35181 144.439 7.86057 143.765 8.57047C144.807 8.27468 145.889 8.18002 147.013 8.28651C147.593 8.41666 148.018 8.55864 148.291 8.71245C148.563 8.86626 149.042 8.96091 149.728 8.99641C150.036 8.92542 150.249 8.61779 150.367 8.07354C150.367 7.86057 150.313 7.54749 150.207 7.13338C150.1 6.71927 150.118 6.39072 150.26 6.14771C150.402 5.90562 150.485 5.67172 150.509 5.446C150.071 4.38116 149.171 3.90789 147.81 4.02621C146.072 4.41756 144.889 5.31677 144.262 6.72473ZM145.754 2.28787C145.754 2.38252 145.727 2.45897 145.673 2.51813C145.62 2.57729 145.551 2.60732 145.469 2.60732C145.399 2.60732 145.333 2.5782 145.274 2.51813C145.215 2.45897 145.185 2.38252 145.185 2.28787C145.185 2.20505 145.214 2.13133 145.274 2.0658C145.332 2.00118 145.399 1.96841 145.469 1.96841C145.551 1.96841 145.62 2.00118 145.673 2.0658C145.726 2.13133 145.754 2.20505 145.754 2.28787ZM146.25 1.18752C146.25 1.27035 146.218 1.33861 146.153 1.39139C146.088 1.44418 146.003 1.47148 145.896 1.47148C145.802 1.47148 145.719 1.44509 145.648 1.39139C145.577 1.3377 145.541 1.27035 145.541 1.18752C145.541 1.11653 145.577 1.05192 145.648 0.992757C145.719 0.933599 145.802 0.903565 145.896 0.903565C146.003 0.903565 146.088 0.933599 146.153 0.992757C146.218 1.05192 146.25 1.11653 146.25 1.18752ZM146.605 2.85578C146.605 2.95044 146.579 3.0278 146.525 3.08605C146.472 3.14521 146.403 3.17524 146.321 3.17524C146.25 3.17524 146.185 3.14612 146.125 3.08605C146.067 3.0278 146.036 2.95044 146.036 2.85578C146.036 2.77296 146.066 2.69924 146.125 2.63371C146.184 2.5691 146.25 2.53633 146.321 2.53633C146.403 2.53633 146.472 2.5691 146.525 2.63371C146.579 2.69924 146.605 2.77296 146.605 2.85578ZM147.457 1.11653C147.457 1.19936 147.428 1.26762 147.368 1.3204C147.309 1.3741 147.232 1.40049 147.138 1.40049C147.054 1.40049 146.98 1.3741 146.916 1.3204C146.851 1.26762 146.818 1.19936 146.818 1.11653C146.818 1.04554 146.851 0.980926 146.916 0.921768C146.98 0.862609 147.054 0.832575 147.138 0.832575C147.232 0.832575 147.309 0.862609 147.368 0.921768C147.427 0.980926 147.457 1.04554 147.457 1.11653ZM147.528 2.14589C147.528 2.24054 147.499 2.31699 147.439 2.37615C147.379 2.43531 147.303 2.46534 147.208 2.46534C147.125 2.46534 147.051 2.43531 146.987 2.37615C146.922 2.31699 146.889 2.24054 146.889 2.14589C146.889 2.06307 146.922 1.98935 146.987 1.92382C147.051 1.8592 147.125 1.82643 147.208 1.82643C147.303 1.82643 147.379 1.8592 147.439 1.92382C147.499 1.98935 147.528 2.06307 147.528 2.14589Z" fill="#505050"/>
</svg>
