<svg width="106" height="17" viewBox="0 0 106 17" fill="none" xmlns="http://www.w3.org/2000/svg">
<path d="M15.6658 15.0072H18.1473V5.03824L15.6658 2.63809V15.0072ZM15.9679 3.3408L17.8454 5.15649V14.7188H15.9679V3.3408Z" fill="#F21F66"/>
<path d="M20.0249 12.7872L22.5064 15.2174V5.21482H30.0844V15.2174L32.5659 12.7872V2.84528H20.0249V12.7872ZM20.327 3.13359H32.2639V12.6697L30.3864 14.5086V4.92637H22.2045V14.5086L20.327 12.6697V3.13359Z" fill="#F21F66"/>
<path d="M43.7988 4.91315H36.6228V7.97644H43.7988V4.91315ZM43.4969 7.68812H36.9249V5.2016H43.4969V7.68812Z" fill="#F21F66"/>
<path d="M36.9251 12.6509V9.31055H45.9788V2.83191H34.4436V15.0206H43.799V14.9939H46.2023L43.653 12.6509H36.9251ZM43.4971 14.7054V14.7322H34.7457V3.12022H45.6768V9.0221H36.6232V12.9392H43.5314L45.4531 14.7054H43.4971Z" fill="#F21F66"/>
<path d="M89.7705 14.3347L92.2522 16.7649V1.29758H89.7705V14.3347ZM90.0726 1.58603H91.9502V16.056L90.0726 14.2172V1.58603Z" fill="#F21F66"/>
<path d="M103.597 4.91315H96.4209V7.97644H103.597V4.91315ZM103.295 7.68812H96.723V5.2016H103.295V7.68812Z" fill="#F21F66"/>
<path d="M103.451 12.6509H96.723V9.31055H105.777V2.83191H94.2415V15.0206H103.597V14.9939H106L103.451 12.6509ZM103.295 14.7054V14.7322H94.5435V3.12022H105.475V9.0221H96.421V12.9392H103.329L105.251 14.7054H103.295Z" fill="#F21F66"/>
<path d="M61.0452 15.0072H63.5268V5.21482H70.993V9.03547H67.7851L65.2401 11.405H73.4745V2.84528H61.0452V15.0072ZM61.3472 3.13359H73.1726V11.1166H65.9824L67.9082 9.32378H71.2951V4.92637H63.2249V14.7188H61.3472V3.13359Z" fill="#F21F66"/>
<path d="M75.3521 15.0072H77.8337V5.21482H85.2999V9.03547H82.092L79.547 11.405H87.7814V2.84528H75.3521V15.0072ZM75.6541 3.13359H87.4795V11.1166H80.2893L82.2151 9.32378H85.602V4.92637H77.5318V14.7188H75.6541V3.13359Z" fill="#F21F66"/>
<path d="M50.0356 12.9392H56.9882V9.02209H50.0356V12.9392ZM50.3377 9.31055H56.6863V12.6509H50.3377V9.31055Z" fill="#F21F66"/>
<path d="M50.1811 5.20159H56.6864V7.68812H47.8563V15.0206H56.9883V14.9939H59.1677V2.83191H47.636L50.1811 5.20159ZM58.8658 14.7054H56.6864V14.7322H48.1583V7.97643H56.9884V4.91314H50.3042L48.3785 3.12022H58.8659V14.7054H58.8658Z" fill="#F21F66"/>
<path d="M1.35889 3.06812V15.0072H3.8404V5.21482H11.3066V9.03547H8.09882L5.55381 11.405H7.48973H7.54562H13.7882V2.84528H1.59227C1.46351 2.84528 1.35889 2.94517 1.35889 3.06812ZM1.66082 3.13359H13.4861V11.1166H7.54547H7.48958H6.29599L8.22177 9.32378H11.6085V4.92637H3.53832V14.7188H1.66082V3.13359Z" fill="#F21F66"/>
<path d="M7.54563 9.03549H7.48975V9.32381H7.54563V9.03549Z" fill="#F21F66"/>
<path d="M7.54563 12.6643H7.48975V12.9526H7.54563V12.6643Z" fill="#F21F66"/>
<path d="M14.3066 1.54761L16.4862 3.65545V13.4211H14.3066V1.54761Z" fill="white"/>
<path d="M30.9048 1.54761V11.2865L28.7252 13.4211V3.62884H20.8454V13.4211L18.6658 11.2865V1.54761H30.9048Z" fill="white"/>
<path d="M33.0845 1.5342V13.4344H42.138V13.4077H44.3175L42.0821 11.3532H35.2641V7.72439H44.3175V1.53406L33.0845 1.5342ZM42.138 6.39041H35.2641V3.61543H42.138V6.39041Z" fill="white"/>
<path d="M90.5913 0V14.9687L88.4119 12.8341V0H90.5913Z" fill="white"/>
<path d="M92.8826 1.5342V13.4344H101.936V13.4077H104.116L101.88 11.3532H95.0621V7.72439H104.116V1.53406L92.8826 1.5342ZM101.936 6.39041H95.0621V3.61543H101.936L101.936 6.39041Z" fill="white"/>
<path d="M71.8135 1.54761V9.81903H64.1012L66.3366 7.7378H69.634V3.62884H61.8659V13.4211H59.6863V1.54761H71.8135Z" fill="white"/>
<path d="M86.1202 1.54761V9.81903H78.4078L80.6433 7.7378H83.9406V3.62884H76.1725V13.4211H73.9929V1.54761H86.1202Z" fill="white"/>
<path d="M46.4971 1.5342L48.7325 3.61543H55.327V6.39041H46.4971V13.4344H55.327V13.4077H57.5066V1.53406L46.4971 1.5342ZM55.327 11.3532H48.6767V7.72439H55.327V11.3532Z" fill="white"/>
<path d="M12.1271 1.54761V9.81903H4.4149L6.65036 7.7378H9.94768V3.6287H2.17958V13.4211H0V1.62631C0 1.58276 0.0369588 1.54761 0.0824133 1.54761H12.1271Z" fill="white"/>
</svg>
