<svg width="32" height="52" viewBox="0 0 32 52" fill="none" xmlns="http://www.w3.org/2000/svg">
<path d="M0.577637 16.915C0.577637 16.915 5.44279 16.8793 8.52427 24.1773L11.7678 21.9067C11.7678 21.9067 6.41576 13.5449 0.577637 16.915Z" fill="url(#paint0_linear_443_31751)"/>
<path d="M4.7981 17.4953C4.7981 17.4953 6.96682 17.901 7.59634 21.956L9.27053 21.0608C9.27053 21.0608 7.73898 16.2559 4.7981 17.4953Z" fill="#06303C"/>
<path d="M7.87549 3.58093C7.87549 3.58093 14.0382 6.1758 14.6868 15.4197L9.52085 13.1492C9.52085 13.1492 10.4704 6.66241 7.87549 3.58093Z" fill="url(#paint1_linear_443_31751)"/>
<path d="M9.65918 6.68155C9.65918 6.68155 12.5937 8.2769 12.9027 13.9601L10.4428 12.5643C10.4428 12.5643 10.895 8.57596 9.65918 6.68155Z" fill="#06303C"/>
<path d="M2.68628 7.47308C2.68628 7.47308 13.7141 9.74362 14.8494 18.8253C14.8494 18.8253 10.3086 15.9061 8.03804 14.7708C8.03804 14.7708 5.76751 9.25701 2.68628 7.47308Z" fill="url(#paint2_linear_443_31751)"/>
<path d="M9.46704 12.1987C9.46704 12.1987 13.3041 13.7295 13.2571 18.3167C13.2571 18.3167 11.7764 16.6931 11.0198 16.0436C11.0198 16.0436 10.4819 13.2018 9.46704 12.1987Z" fill="#06303C"/>
<path d="M7.83789 11.91C7.83789 11.91 9.89766 12.7998 10.6703 17.3077C10.6703 17.3077 9.69632 15.951 9.23012 15.4345C9.23012 15.4345 8.48629 12.7325 7.83789 11.91Z" fill="#06303C"/>
<path d="M0.577637 12.1762C0.577637 12.1762 7.55129 14.7274 8.76745 22.2903L14.2177 20.0624C14.2177 20.0624 10.7946 12.3385 0.577637 12.1762Z" fill="url(#paint3_linear_443_31751)"/>
<path d="M5.65381 14.6345C5.65381 14.6345 9.18567 16.7004 9.10504 20.9207L12.2786 20.2461C12.2786 20.2461 11.1783 15.7223 5.65381 14.6345Z" fill="#06303C"/>
<path d="M30.5798 16.915C30.5798 16.915 25.7146 16.8793 22.6332 24.1773L19.3896 21.9067C19.3896 21.9067 24.7414 13.5449 30.5798 16.915Z" fill="url(#paint4_linear_443_31751)"/>
<path d="M26.3592 17.4953C26.3592 17.4953 24.1904 17.901 23.5609 21.956L21.8867 21.0608C21.8867 21.0608 23.4185 16.2559 26.3592 17.4953Z" fill="#06303C"/>
<path d="M23.2823 3.58093C23.2823 3.58093 17.1196 6.1758 16.4709 15.4197L21.6369 13.1492C21.6369 13.1492 20.6877 6.66241 23.2823 3.58093Z" fill="url(#paint5_linear_443_31751)"/>
<path d="M21.336 6.68155C21.336 6.68155 18.4015 8.2769 18.0925 13.9601L20.5524 12.5643C20.5524 12.5643 20.1002 8.57596 21.336 6.68155Z" fill="#06303C"/>
<path d="M28.472 7.47308C28.472 7.47308 17.4441 9.74362 16.3088 18.8253C16.3088 18.8253 20.8497 15.9061 23.1202 14.7708C23.1202 14.7708 25.3907 9.25701 28.472 7.47308Z" fill="url(#paint6_linear_443_31751)"/>
<path d="M21.6904 12.1987C21.6904 12.1987 17.8534 13.7295 17.9003 18.3167C17.9003 18.3167 19.3811 16.6931 20.1377 16.0436C20.1377 16.0436 20.6759 13.2018 21.6904 12.1987Z" fill="#06303C"/>
<path d="M23.32 11.91C23.32 11.91 21.2602 12.7998 20.4875 17.3077C20.4875 17.3077 21.4615 15.951 21.9278 15.4345C21.9278 15.4345 22.6718 12.7325 23.32 11.91Z" fill="#06303C"/>
<path d="M30.58 12.1762C30.58 12.1762 23.6064 14.7274 22.3902 22.2903L16.9399 20.0624C16.9399 20.0624 20.3631 12.3385 30.58 12.1762Z" fill="url(#paint7_linear_443_31751)"/>
<path d="M25.504 14.6345C25.504 14.6345 21.9721 16.7004 22.0527 20.9207L18.8792 20.2461C18.8792 20.2461 19.9795 15.7223 25.504 14.6345Z" fill="#06303C"/>
<path d="M15.4166 20.6094C11.7221 14.9219 11.7221 5.70064 15.4166 0.0130615C19.111 5.70064 19.111 14.9219 15.4166 20.6094Z" fill="url(#paint8_linear_443_31751)"/>
<path d="M15.4164 16.8793C13.0601 13.2517 13.0601 7.37046 15.4164 3.74316C17.7727 7.37046 17.7727 13.2517 15.4164 16.8793Z" fill="url(#paint9_linear_443_31751)"/>
<path d="M15.6964 14.7803L14.8862 14.757L15.4976 2.76871L15.6964 14.7803Z" fill="url(#paint10_linear_443_31751)"/>
<path d="M14.985 23.7811L15.4166 24.519L15.8481 23.7811C16.8857 22.0072 17.39 19.7136 17.39 17.447C17.39 15.1804 16.8857 12.8868 15.8481 11.1131L15.4165 10.3752L14.985 11.1131C13.9475 12.8869 13.4431 15.1805 13.4431 17.4471C13.4431 19.7137 13.9475 22.0073 14.985 23.7811Z" fill="url(#paint11_linear_443_31751)" stroke="url(#paint12_linear_443_31751)" stroke-miterlimit="10"/>
<path d="M15.4165 19.7155C14.4435 17.8357 14.4435 14.7876 15.4165 12.9077C16.3897 14.7876 16.3897 17.8357 15.4165 19.7155Z" fill="#06303C"/>
<path d="M28.8795 33.0681C28.2592 24.3573 17.7458 18.4946 17.7458 18.4946H15.7215H15.4684H13.4441C13.4441 18.4946 2.3103 24.2151 2.3103 33.0681C2.3103 36.023 2.3103 44.9707 2.3103 44.9707C2.3103 48.8529 5.23383 52 8.83995 52H15.4684H15.7215H22.3499C25.956 52 28.8795 48.8529 28.8795 44.9707C28.8795 44.9707 29.2967 38.9249 28.8795 33.0681Z" fill="url(#paint13_linear_443_31751)"/>
<path d="M31.2838 28.313H0.572611C0.256451 28.313 0 28.5694 0 28.8856V30.6749C0 30.991 0.256451 31.2475 0.572611 31.2475H1.06433V35.2703C1.06433 38.833 3.95239 41.7211 7.51513 41.7211H8.39268C11.9554 41.7211 14.8437 38.833 14.8437 35.2703V31.2475H17.0127V35.3862C17.0127 38.9489 19.9008 41.8372 23.4635 41.8372H24.3411C27.9038 41.8372 30.7921 38.9492 30.7921 35.3862V31.2475H31.2838C31.6 31.2475 31.8564 30.991 31.8564 30.6749V28.8856C31.8562 28.5692 31.6 28.313 31.2838 28.313Z" fill="black"/>
<mask id="mask0_443_31751" style="mask-type:luminance" maskUnits="userSpaceOnUse" x="0" y="28" width="32" height="14">
<path d="M31.2838 28.313H0.572611C0.256451 28.313 0 28.5694 0 28.8856V30.6749C0 30.991 0.256451 31.2475 0.572611 31.2475H1.06433V35.2703C1.06433 38.833 3.95239 41.7211 7.51513 41.7211H8.39268C11.9554 41.7211 14.8437 38.833 14.8437 35.2703V31.2475H17.0127V35.3862C17.0127 38.9489 19.9008 41.8372 23.4635 41.8372H24.3411C27.9038 41.8372 30.7921 38.9492 30.7921 35.3862V31.2475H31.2838C31.6 31.2475 31.8564 30.991 31.8564 30.6749V28.8856C31.8562 28.5692 31.6 28.313 31.2838 28.313Z" fill="white"/>
</mask>
<g mask="url(#mask0_443_31751)">
<path d="M25.2298 30.8647L16.6526 45.7207L19.8507 47.5671L29.494 30.8647H25.2298Z" fill="white"/>
<path d="M0.831787 45.7207L4.02988 47.5671L13.6732 30.8647H9.40895L0.831787 45.7207Z" fill="white"/>
<path d="M5.45236 30.8647L-1.20947 42.4034L0.347089 43.3021L7.52794 30.8647H5.45236Z" fill="white"/>
</g>
<defs>
<linearGradient id="paint0_linear_443_31751" x1="8.8244" y1="24.0038" x2="3.69308" y2="15.1162" gradientUnits="userSpaceOnUse">
<stop stop-color="#06303C"/>
<stop offset="0.1605" stop-color="#063936"/>
<stop offset="0.2827" stop-color="#06442F"/>
<stop offset="0.3185" stop-color="#0C4C30"/>
<stop offset="0.3743" stop-color="#1E6234"/>
<stop offset="0.4433" stop-color="#3B863A"/>
<stop offset="0.5219" stop-color="#62B843"/>
<stop offset="0.5559" stop-color="#75D047"/>
<stop offset="0.5956" stop-color="#8FD63E"/>
<stop offset="0.664" stop-color="#B7DF31"/>
<stop offset="0.7316" stop-color="#D6E627"/>
<stop offset="0.7971" stop-color="#ECEB20"/>
<stop offset="0.8597" stop-color="#F9EE1B"/>
<stop offset="0.9162" stop-color="#FEEF1A"/>
</linearGradient>
<linearGradient id="paint1_linear_443_31751" x1="11.2813" y1="15.4198" x2="11.2813" y2="3.58098" gradientUnits="userSpaceOnUse">
<stop stop-color="#06303C"/>
<stop offset="0.1605" stop-color="#063936"/>
<stop offset="0.2827" stop-color="#06442F"/>
<stop offset="0.3185" stop-color="#0C4C30"/>
<stop offset="0.3743" stop-color="#1E6234"/>
<stop offset="0.4433" stop-color="#3B863A"/>
<stop offset="0.5219" stop-color="#62B843"/>
<stop offset="0.5559" stop-color="#75D047"/>
<stop offset="0.5956" stop-color="#8FD63E"/>
<stop offset="0.664" stop-color="#B7DF31"/>
<stop offset="0.7316" stop-color="#D6E627"/>
<stop offset="0.7971" stop-color="#ECEB20"/>
<stop offset="0.8597" stop-color="#F9EE1B"/>
<stop offset="0.9162" stop-color="#FEEF1A"/>
</linearGradient>
<linearGradient id="paint2_linear_443_31751" x1="8.76782" y1="18.8254" x2="8.76782" y2="7.47316" gradientUnits="userSpaceOnUse">
<stop stop-color="#06303C"/>
<stop offset="0.1605" stop-color="#063936"/>
<stop offset="0.2827" stop-color="#06442F"/>
<stop offset="0.3185" stop-color="#0C4C30"/>
<stop offset="0.3743" stop-color="#1E6234"/>
<stop offset="0.4433" stop-color="#3B863A"/>
<stop offset="0.5219" stop-color="#62B843"/>
<stop offset="0.5559" stop-color="#75D047"/>
<stop offset="0.5956" stop-color="#8FD63E"/>
<stop offset="0.664" stop-color="#B7DF31"/>
<stop offset="0.7316" stop-color="#D6E627"/>
<stop offset="0.7971" stop-color="#ECEB20"/>
<stop offset="0.8597" stop-color="#F9EE1B"/>
<stop offset="0.9162" stop-color="#FEEF1A"/>
</linearGradient>
<linearGradient id="paint3_linear_443_31751" x1="7.39765" y1="22.2905" x2="7.39765" y2="12.1763" gradientUnits="userSpaceOnUse">
<stop stop-color="#06303C"/>
<stop offset="0.1605" stop-color="#063936"/>
<stop offset="0.2827" stop-color="#06442F"/>
<stop offset="0.3185" stop-color="#0C4C30"/>
<stop offset="0.3743" stop-color="#1E6234"/>
<stop offset="0.4433" stop-color="#3B863A"/>
<stop offset="0.5219" stop-color="#62B843"/>
<stop offset="0.5559" stop-color="#75D047"/>
<stop offset="0.5956" stop-color="#8FD63E"/>
<stop offset="0.664" stop-color="#B7DF31"/>
<stop offset="0.7316" stop-color="#D6E627"/>
<stop offset="0.7971" stop-color="#ECEB20"/>
<stop offset="0.8597" stop-color="#F9EE1B"/>
<stop offset="0.9162" stop-color="#FEEF1A"/>
</linearGradient>
<linearGradient id="paint4_linear_443_31751" x1="22.333" y1="24.0038" x2="27.4643" y2="15.1162" gradientUnits="userSpaceOnUse">
<stop stop-color="#06303C"/>
<stop offset="0.1605" stop-color="#063936"/>
<stop offset="0.2827" stop-color="#06442F"/>
<stop offset="0.3185" stop-color="#0C4C30"/>
<stop offset="0.3743" stop-color="#1E6234"/>
<stop offset="0.4433" stop-color="#3B863A"/>
<stop offset="0.5219" stop-color="#62B843"/>
<stop offset="0.5559" stop-color="#75D047"/>
<stop offset="0.5956" stop-color="#8FD63E"/>
<stop offset="0.664" stop-color="#B7DF31"/>
<stop offset="0.7316" stop-color="#D6E627"/>
<stop offset="0.7971" stop-color="#ECEB20"/>
<stop offset="0.8597" stop-color="#F9EE1B"/>
<stop offset="0.9162" stop-color="#FEEF1A"/>
</linearGradient>
<linearGradient id="paint5_linear_443_31751" x1="19.8767" y1="15.4198" x2="19.8767" y2="3.58098" gradientUnits="userSpaceOnUse">
<stop stop-color="#06303C"/>
<stop offset="0.1605" stop-color="#063936"/>
<stop offset="0.2827" stop-color="#06442F"/>
<stop offset="0.3185" stop-color="#0C4C30"/>
<stop offset="0.3743" stop-color="#1E6234"/>
<stop offset="0.4433" stop-color="#3B863A"/>
<stop offset="0.5219" stop-color="#62B843"/>
<stop offset="0.5559" stop-color="#75D047"/>
<stop offset="0.5956" stop-color="#8FD63E"/>
<stop offset="0.664" stop-color="#B7DF31"/>
<stop offset="0.7316" stop-color="#D6E627"/>
<stop offset="0.7971" stop-color="#ECEB20"/>
<stop offset="0.8597" stop-color="#F9EE1B"/>
<stop offset="0.9162" stop-color="#FEEF1A"/>
</linearGradient>
<linearGradient id="paint6_linear_443_31751" x1="22.3904" y1="18.8254" x2="22.3904" y2="7.47316" gradientUnits="userSpaceOnUse">
<stop stop-color="#06303C"/>
<stop offset="0.1605" stop-color="#063936"/>
<stop offset="0.2827" stop-color="#06442F"/>
<stop offset="0.3185" stop-color="#0C4C30"/>
<stop offset="0.3743" stop-color="#1E6234"/>
<stop offset="0.4433" stop-color="#3B863A"/>
<stop offset="0.5219" stop-color="#62B843"/>
<stop offset="0.5559" stop-color="#75D047"/>
<stop offset="0.5956" stop-color="#8FD63E"/>
<stop offset="0.664" stop-color="#B7DF31"/>
<stop offset="0.7316" stop-color="#D6E627"/>
<stop offset="0.7971" stop-color="#ECEB20"/>
<stop offset="0.8597" stop-color="#F9EE1B"/>
<stop offset="0.9162" stop-color="#FEEF1A"/>
</linearGradient>
<linearGradient id="paint7_linear_443_31751" x1="23.76" y1="22.2905" x2="23.76" y2="12.1763" gradientUnits="userSpaceOnUse">
<stop stop-color="#06303C"/>
<stop offset="0.1605" stop-color="#063936"/>
<stop offset="0.2827" stop-color="#06442F"/>
<stop offset="0.3185" stop-color="#0C4C30"/>
<stop offset="0.3743" stop-color="#1E6234"/>
<stop offset="0.4433" stop-color="#3B863A"/>
<stop offset="0.5219" stop-color="#62B843"/>
<stop offset="0.5559" stop-color="#75D047"/>
<stop offset="0.5956" stop-color="#8FD63E"/>
<stop offset="0.664" stop-color="#B7DF31"/>
<stop offset="0.7316" stop-color="#D6E627"/>
<stop offset="0.7971" stop-color="#ECEB20"/>
<stop offset="0.8597" stop-color="#F9EE1B"/>
<stop offset="0.9162" stop-color="#FEEF1A"/>
</linearGradient>
<linearGradient id="paint8_linear_443_31751" x1="15.4166" y1="20.6094" x2="15.4166" y2="0.0130861" gradientUnits="userSpaceOnUse">
<stop stop-color="#06303C"/>
<stop offset="0.1605" stop-color="#063936"/>
<stop offset="0.2827" stop-color="#06442F"/>
<stop offset="0.3185" stop-color="#0C4C30"/>
<stop offset="0.3743" stop-color="#1E6234"/>
<stop offset="0.4433" stop-color="#3B863A"/>
<stop offset="0.5219" stop-color="#62B843"/>
<stop offset="0.5559" stop-color="#75D047"/>
<stop offset="0.5956" stop-color="#8FD63E"/>
<stop offset="0.664" stop-color="#B7DF31"/>
<stop offset="0.7316" stop-color="#D6E627"/>
<stop offset="0.7971" stop-color="#ECEB20"/>
<stop offset="0.8597" stop-color="#F9EE1B"/>
<stop offset="0.9162" stop-color="#FEEF1A"/>
</linearGradient>
<linearGradient id="paint9_linear_443_31751" x1="15.4165" y1="16.8793" x2="15.4165" y2="3.74309" gradientUnits="userSpaceOnUse">
<stop stop-color="#06303C"/>
<stop offset="0.3318" stop-color="#063936"/>
<stop offset="0.5844" stop-color="#06442F"/>
<stop offset="0.6388" stop-color="#0C4C30"/>
<stop offset="0.7238" stop-color="#1E6234"/>
<stop offset="0.8287" stop-color="#3B863A"/>
<stop offset="0.9483" stop-color="#62B843"/>
<stop offset="1" stop-color="#75D047"/>
</linearGradient>
<linearGradient id="paint10_linear_443_31751" x1="19.5532" y1="13.5664" x2="16.0932" y2="2.5819" gradientUnits="userSpaceOnUse">
<stop stop-color="#06303C"/>
<stop offset="0.1446" stop-color="#063936"/>
<stop offset="0.2547" stop-color="#06442F"/>
<stop offset="0.2683" stop-color="#0E4E31"/>
<stop offset="0.3301" stop-color="#2D7537"/>
<stop offset="0.394" stop-color="#47963D"/>
<stop offset="0.4594" stop-color="#5BB041"/>
<stop offset="0.527" stop-color="#6AC245"/>
<stop offset="0.5982" stop-color="#72CD46"/>
<stop offset="0.6788" stop-color="#75D047"/>
<stop offset="0.7049" stop-color="#8FD63E"/>
<stop offset="0.75" stop-color="#B7DF31"/>
<stop offset="0.7945" stop-color="#D6E627"/>
<stop offset="0.8377" stop-color="#ECEB20"/>
<stop offset="0.8789" stop-color="#F9EE1B"/>
<stop offset="0.9162" stop-color="#FEEF1A"/>
</linearGradient>
<linearGradient id="paint11_linear_443_31751" x1="16.89" y1="17.4469" x2="13.9433" y2="17.4469" gradientUnits="userSpaceOnUse">
<stop stop-color="#06303C"/>
<stop offset="0.1605" stop-color="#063936"/>
<stop offset="0.2827" stop-color="#06442F"/>
<stop offset="0.3185" stop-color="#0C4C30"/>
<stop offset="0.3743" stop-color="#1E6234"/>
<stop offset="0.4433" stop-color="#3B863A"/>
<stop offset="0.5219" stop-color="#62B843"/>
<stop offset="0.5559" stop-color="#75D047"/>
<stop offset="0.5956" stop-color="#8FD63E"/>
<stop offset="0.664" stop-color="#B7DF31"/>
<stop offset="0.7316" stop-color="#D6E627"/>
<stop offset="0.7971" stop-color="#ECEB20"/>
<stop offset="0.8597" stop-color="#F9EE1B"/>
<stop offset="0.9162" stop-color="#FEEF1A"/>
</linearGradient>
<linearGradient id="paint12_linear_443_31751" x1="16.2896" y1="23.6585" x2="14.5437" y2="11.2353" gradientUnits="userSpaceOnUse">
<stop offset="0.4553" stop-color="#39DEB6"/>
<stop offset="0.4916" stop-color="#33C9A7"/>
<stop offset="0.5793" stop-color="#259A87"/>
<stop offset="0.6672" stop-color="#1A746C"/>
<stop offset="0.754" stop-color="#115657"/>
<stop offset="0.8391" stop-color="#0B4148"/>
<stop offset="0.922" stop-color="#07343F"/>
<stop offset="1" stop-color="#06303C"/>
</linearGradient>
<linearGradient id="paint13_linear_443_31751" x1="2.46734" y1="30.1062" x2="30.1784" y2="44.2257" gradientUnits="userSpaceOnUse">
<stop stop-color="#FCEE21"/>
<stop offset="0.0601" stop-color="#FCE51F"/>
<stop offset="0.1599" stop-color="#FDCB1A"/>
<stop offset="0.2864" stop-color="#FEA212"/>
<stop offset="0.3854" stop-color="#FF7D0A"/>
<stop offset="0.6397" stop-color="#F21F66"/>
<stop offset="0.664" stop-color="#D43E73"/>
<stop offset="0.7021" stop-color="#AB6885"/>
<stop offset="0.7424" stop-color="#888D94"/>
<stop offset="0.7844" stop-color="#6BAAA0"/>
<stop offset="0.8286" stop-color="#55C1AA"/>
<stop offset="0.8762" stop-color="#45D1B1"/>
<stop offset="0.9294" stop-color="#3CDBB5"/>
<stop offset="1" stop-color="#39DEB6"/>
</linearGradient>
</defs>
</svg>
