<svg width="73" height="108" viewBox="0 0 73 108" fill="none" xmlns="http://www.w3.org/2000/svg">
<g id="Group">
<g id="Group_2">
<path id="Vector" d="M66.9517 36.2604C66.9517 36.2604 57.0899 36.188 50.8437 50.9811L44.2691 46.3787C44.2691 46.3787 55.1177 29.4292 66.9517 36.2604Z" fill="url(#paint0_linear_438_31633)" stroke="black" stroke-width="2" stroke-miterlimit="10"/>
<path id="Vector_2" d="M58.3965 37.4368C58.3965 37.4368 54.0004 38.2592 52.7244 46.4787L49.3308 44.6642C49.3308 44.6642 52.4353 34.9246 58.3965 37.4368Z" fill="#06303C"/>
<path id="Vector_3" d="M52.1591 9.23193C52.1591 9.23193 39.6672 14.4918 38.3523 33.2294L48.8239 28.6269C48.8239 28.6269 46.8992 15.4781 52.1591 9.23193Z" fill="url(#paint1_linear_438_31633)" stroke="black" stroke-width="2" stroke-miterlimit="10"/>
<path id="Vector_4" d="M48.5431 15.5171C48.5431 15.5171 42.5948 18.7509 41.9684 30.2709L46.9546 27.4416C46.9546 27.4416 46.0381 19.3571 48.5431 15.5171Z" fill="#06303C"/>
<path id="Vector_5" d="M62.6782 17.1216C62.6782 17.1216 40.3246 21.724 38.0234 40.1326C38.0234 40.1326 47.2277 34.2154 51.8301 31.9142C51.8301 31.9142 56.4325 20.7376 62.6782 17.1216Z" fill="url(#paint2_linear_438_31633)" stroke="black" stroke-width="2" stroke-miterlimit="10"/>
<path id="Vector_6" d="M48.9325 26.7002C48.9325 26.7002 41.1547 29.8031 41.2499 39.1016C41.2499 39.1016 44.2515 35.8104 45.7851 34.494C45.7851 34.494 46.8754 28.7335 48.9325 26.7002Z" fill="#06303C"/>
<path id="Vector_7" d="M52.2356 26.1155C52.2356 26.1155 48.0604 27.9191 46.4942 37.0567C46.4942 37.0567 48.4685 34.3065 49.4135 33.2596C49.4135 33.2596 50.9213 27.7825 52.2356 26.1155Z" fill="#06303C"/>
<path id="Vector_8" d="M66.9517 26.6548C66.9517 26.6548 52.816 31.8262 50.3508 47.1562L39.303 42.6401C39.303 42.6401 46.2418 26.9838 66.9517 26.6548Z" fill="url(#paint3_linear_438_31633)" stroke="black" stroke-width="2" stroke-miterlimit="10"/>
<path id="Vector_9" d="M56.6621 31.6379C56.6621 31.6379 49.503 35.8255 49.6664 44.3802L43.2335 43.0126C43.2335 43.0126 45.4638 33.8429 56.6621 31.6379Z" fill="#06303C"/>
<path id="Vector_10" d="M6.1365 36.2604C6.1365 36.2604 15.9982 36.188 22.2444 50.9811L28.8191 46.3787C28.8191 46.3787 17.971 29.4292 6.1365 36.2604Z" fill="url(#paint4_linear_438_31633)" stroke="black" stroke-width="2" stroke-miterlimit="10"/>
<path id="Vector_11" d="M14.6921 37.4368C14.6921 37.4368 19.0882 38.2592 20.3642 46.4787L23.7578 44.6642C23.7578 44.6642 20.6528 34.9246 14.6921 37.4368Z" fill="#06303C"/>
<path id="Vector_12" d="M20.9296 9.23193C20.9296 9.23193 33.4215 14.4918 34.7363 33.2294L24.2648 28.6269C24.2648 28.6269 26.1889 15.4781 20.9296 9.23193Z" fill="url(#paint5_linear_438_31633)" stroke="black" stroke-width="2" stroke-miterlimit="10"/>
<path id="Vector_13" d="M24.8741 15.5171C24.8741 15.5171 30.8224 18.7509 31.4487 30.2709L26.4625 27.4416C26.4625 27.4416 27.3791 19.3571 24.8741 15.5171Z" fill="#06303C"/>
<path id="Vector_14" d="M10.41 17.1216C10.41 17.1216 32.7636 21.724 35.0648 40.1326C35.0648 40.1326 25.8605 34.2154 21.2581 31.9142C21.2581 31.9142 16.6557 20.7376 10.41 17.1216Z" fill="url(#paint6_linear_438_31633)" stroke="black" stroke-width="2" stroke-miterlimit="10"/>
<path id="Vector_15" d="M24.1561 26.7002C24.1561 26.7002 31.9339 29.8031 31.8387 39.1016C31.8387 39.1016 28.8372 35.8104 27.3036 34.494C27.3036 34.494 26.2127 28.7335 24.1561 26.7002Z" fill="#06303C"/>
<path id="Vector_16" d="M20.853 26.1155C20.853 26.1155 25.0282 27.9191 26.5944 37.0567C26.5944 37.0567 24.6201 34.3065 23.6751 33.2596C23.6751 33.2596 22.1668 27.7825 20.853 26.1155Z" fill="#06303C"/>
<path id="Vector_17" d="M6.13653 26.6548C6.13653 26.6548 20.2722 31.8262 22.7374 47.1562L33.7852 42.6401C33.7852 42.6401 26.8464 26.9838 6.13653 26.6548Z" fill="url(#paint7_linear_438_31633)" stroke="black" stroke-width="2" stroke-miterlimit="10"/>
<path id="Vector_18" d="M16.426 31.6379C16.426 31.6379 23.5851 35.8255 23.4217 44.3802L29.8546 43.0126C29.8546 43.0126 27.6243 33.8429 16.426 31.6379Z" fill="#06303C"/>
<path id="Vector_19" d="M36.873 43.7491C44.3617 32.2204 44.3617 13.5288 36.873 2C29.3844 13.5288 29.3844 32.2204 36.873 43.7491Z" fill="url(#paint8_linear_438_31633)" stroke="black" stroke-width="2" stroke-miterlimit="10"/>
<path id="Vector_20" d="M36.873 36.1881C41.6493 28.835 41.6493 16.9136 36.873 9.56104C32.0968 16.9136 32.0968 28.835 36.873 36.1881Z" fill="url(#paint9_linear_438_31633)"/>
<path id="Vector_21" d="M36.3056 31.9333L37.9479 31.8862L36.7086 7.58569L36.3056 31.9333Z" fill="url(#paint10_linear_438_31633)"/>
<path id="Vector_22" d="M36.8731 49.6663C40.8553 42.8579 40.8553 31.8199 36.8731 25.0115C32.8908 31.8194 32.8908 42.8579 36.8731 49.6663Z" fill="url(#paint11_linear_438_31633)" stroke="url(#paint12_linear_438_31633)" stroke-miterlimit="10"/>
<path id="Vector_23" d="M36.8731 41.9372C38.8454 38.1267 38.8454 31.9482 36.8731 28.1377C34.9004 31.9482 34.9004 38.1267 36.8731 41.9372Z" fill="#06303C"/>
</g>
<path id="Vector_24" d="M9.68126 68.6249C10.9387 50.9678 32.2495 39.0842 32.2495 39.0842H36.3528H36.8659H40.9692C40.9692 39.0842 63.5375 50.6797 63.5375 68.6249C63.5375 74.6146 63.5375 92.7517 63.5375 92.7517C63.5375 100.621 57.6114 107 50.3018 107H36.8659H36.3528H22.9169C15.6073 107 9.68126 100.621 9.68126 92.7517C9.68126 92.7517 8.83557 80.4966 9.68126 68.6249Z" fill="url(#paint13_linear_438_31633)" stroke="black" stroke-width="2" stroke-miterlimit="10"/>
<g id="Group_3">
<g id="Clip path group">
<mask id="mask0_438_31633" style="mask-type:luminance" maskUnits="userSpaceOnUse" x="9" y="39" width="55" height="68">
<g id="SVGID_00000054988939144429540480000017993130050580697520_">
<path id="Vector_25" d="M9.68126 68.6249C10.9387 50.9678 32.2495 39.0842 32.2495 39.0842H36.3528H36.8659H40.9692C40.9692 39.0842 63.5375 50.6797 63.5375 68.6249C63.5375 74.6146 63.5375 92.7517 63.5375 92.7517C63.5375 100.621 57.6114 107 50.3018 107H36.8659H36.3528H22.9169C15.6073 107 9.68126 100.621 9.68126 92.7517C9.68126 92.7517 8.83557 80.4966 9.68126 68.6249Z" fill="white"/>
</g>
</mask>
<g mask="url(#mask0_438_31633)">
<g id="Group_4">
<path id="Vector_26" d="M51.7825 26.7502L36.4214 42.1113L21.0602 26.7502L36.4214 11.389L51.7825 26.7502Z" stroke="black" stroke-miterlimit="10"/>
<path id="Vector_27" d="M36.2652 42.2675L20.9041 57.6287L5.54291 42.2675L20.9041 26.9064L36.2652 42.2675Z" stroke="black" stroke-miterlimit="10"/>
<path id="Vector_28" d="M67.3 42.2675L51.9388 57.6287L36.5777 42.2675L51.9388 26.9064L67.3 42.2675Z" stroke="black" stroke-miterlimit="10"/>
<path id="Vector_29" d="M51.7826 57.7849L36.4215 73.146L21.0604 57.7849L36.4215 42.4237L51.7826 57.7849Z" stroke="black" stroke-miterlimit="10"/>
<path id="Vector_30" d="M51.7829 88.3022L36.4218 103.663L21.0606 88.3022L36.4218 72.941L51.7829 88.3022Z" stroke="black" stroke-miterlimit="10"/>
<path id="Vector_31" d="M36.2657 103.82L20.9045 119.181L5.54341 103.82L20.9045 88.4586L36.2657 103.82Z" stroke="black" stroke-miterlimit="10"/>
<path id="Vector_32" d="M67.3004 103.82L51.9392 119.181L36.5781 103.82L51.9392 88.4584L67.3004 103.82Z" stroke="black" stroke-miterlimit="10"/>
<path id="Vector_33" d="M51.7831 119.337L36.422 134.698L21.0609 119.337L36.422 103.976L51.7831 119.337Z" stroke="black" stroke-miterlimit="10"/>
<path id="Vector_34" d="M67.1962 72.8868L51.8351 57.5256L67.1962 42.1645L82.5574 57.5256L67.1962 72.8868Z" stroke="black" stroke-miterlimit="10"/>
<path id="Vector_35" d="M67.196 103.921L51.8348 88.5601L67.196 73.1989L82.5571 88.5601L67.196 103.921Z" stroke="black" stroke-miterlimit="10"/>
<path id="Vector_36" d="M51.6788 88.4039L36.3176 73.0427L51.6788 57.6816L67.0399 73.0427L51.6788 88.4039Z" stroke="black" stroke-miterlimit="10"/>
<path id="Vector_37" d="M21.1613 88.4036L5.80017 73.0425L21.1613 57.6813L36.5225 73.0425L21.1613 88.4036Z" stroke="black" stroke-miterlimit="10"/>
<path id="Vector_38" d="M5.6441 72.886L-9.71704 57.5249L5.6441 42.1638L21.0052 57.5249L5.6441 72.886Z" stroke="black" stroke-miterlimit="10"/>
<path id="Vector_39" d="M5.64386 103.921L-9.71729 88.5598L5.64386 73.1987L21.005 88.5598L5.64386 103.921Z" stroke="black" stroke-miterlimit="10"/>
</g>
</g>
</g>
</g>
<g id="Group_5">
<path id="Vector_40" d="M5.29498 62.9175H67.5471C68.1879 62.9175 68.7078 63.4373 68.7078 64.0782V67.7051C68.7078 68.3459 68.1879 68.8658 67.5471 68.8658H66.5504V77.0201C66.5504 84.2418 60.6962 90.0959 53.4745 90.0959H51.6957C44.474 90.0959 38.6193 84.2418 38.6193 77.0201V68.8658H34.2228V77.2549C34.2228 84.4766 28.3686 90.3313 21.1469 90.3313H19.3681C12.1464 90.3313 6.29171 84.4771 6.29171 77.2549V68.8658H5.29498C4.65412 68.8658 4.1343 68.3459 4.1343 67.7051V64.0782C4.13482 63.4368 4.65412 62.9175 5.29498 62.9175Z" fill="black" stroke="black" stroke-width="2" stroke-miterlimit="10"/>
<g id="Group_6">
<g id="Clip path group_2">
<mask id="mask1_438_31633" style="mask-type:luminance" maskUnits="userSpaceOnUse" x="4" y="62" width="65" height="29">
<g id="SVGID_00000087396224219459227470000006244394918682287287_">
<path id="Vector_41" d="M5.29498 62.9175H67.5471C68.1879 62.9175 68.7078 63.4373 68.7078 64.0782V67.7051C68.7078 68.3459 68.1879 68.8658 67.5471 68.8658H66.5504V77.0201C66.5504 84.2418 60.6962 90.0959 53.4745 90.0959H51.6957C44.474 90.0959 38.6193 84.2418 38.6193 77.0201V68.8658H34.2228V77.2549C34.2228 84.4766 28.3686 90.3313 21.1469 90.3313H19.3681C12.1464 90.3313 6.29171 84.4771 6.29171 77.2549V68.8658H5.29498C4.65412 68.8658 4.1343 68.3459 4.1343 67.7051V64.0782C4.13482 63.4368 4.65412 62.9175 5.29498 62.9175Z" fill="white"/>
</g>
</mask>
<g mask="url(#mask1_438_31633)">
<g id="Group_7">
<path id="Vector_42" d="M17.567 68.0898L34.953 98.2031L28.4704 101.946L8.92334 68.0898H17.567Z" fill="white" stroke="black" stroke-width="2" stroke-miterlimit="10"/>
<path id="Vector_43" d="M67.022 98.2031L60.5394 101.946L40.9923 68.0898H49.6359L67.022 98.2031Z" fill="white" stroke="black" stroke-width="2" stroke-miterlimit="10"/>
<path id="Vector_44" d="M57.6563 68.0898L71.1599 91.479L68.0047 93.3007L53.449 68.0898H57.6563Z" fill="white" stroke="black" stroke-width="2" stroke-miterlimit="10"/>
</g>
</g>
</g>
<path id="Vector_45" d="M5.29498 62.9175H67.5471C68.1879 62.9175 68.7078 63.4373 68.7078 64.0782V67.7051C68.7078 68.3459 68.1879 68.8658 67.5471 68.8658H66.5504V77.0201C66.5504 84.2418 60.6962 90.0959 53.4745 90.0959H51.6957C44.474 90.0959 38.6193 84.2418 38.6193 77.0201V68.8658H34.2228V77.2549C34.2228 84.4766 28.3686 90.3313 21.1469 90.3313H19.3681C12.1464 90.3313 6.29171 84.4771 6.29171 77.2549V68.8658H5.29498C4.65412 68.8658 4.1343 68.3459 4.1343 67.7051V64.0782C4.13482 63.4368 4.65412 62.9175 5.29498 62.9175Z" stroke="black" stroke-width="2" stroke-miterlimit="10"/>
</g>
</g>
</g>
<defs>
<linearGradient id="paint0_linear_438_31633" x1="50.2353" y1="50.6296" x2="60.6366" y2="32.6141" gradientUnits="userSpaceOnUse">
<stop stop-color="#06303C"/>
<stop offset="0.1605" stop-color="#063936"/>
<stop offset="0.2827" stop-color="#06442F"/>
<stop offset="0.3185" stop-color="#0C4C30"/>
<stop offset="0.3743" stop-color="#1E6234"/>
<stop offset="0.4433" stop-color="#3B863A"/>
<stop offset="0.5219" stop-color="#62B843"/>
<stop offset="0.5559" stop-color="#75D047"/>
<stop offset="0.5956" stop-color="#8FD63E"/>
<stop offset="0.664" stop-color="#B7DF31"/>
<stop offset="0.7316" stop-color="#D6E627"/>
<stop offset="0.7971" stop-color="#ECEB20"/>
<stop offset="0.8597" stop-color="#F9EE1B"/>
<stop offset="0.9162" stop-color="#FEEF1A"/>
</linearGradient>
<linearGradient id="paint1_linear_438_31633" x1="45.2555" y1="33.2295" x2="45.2555" y2="9.23204" gradientUnits="userSpaceOnUse">
<stop stop-color="#06303C"/>
<stop offset="0.1605" stop-color="#063936"/>
<stop offset="0.2827" stop-color="#06442F"/>
<stop offset="0.3185" stop-color="#0C4C30"/>
<stop offset="0.3743" stop-color="#1E6234"/>
<stop offset="0.4433" stop-color="#3B863A"/>
<stop offset="0.5219" stop-color="#62B843"/>
<stop offset="0.5559" stop-color="#75D047"/>
<stop offset="0.5956" stop-color="#8FD63E"/>
<stop offset="0.664" stop-color="#B7DF31"/>
<stop offset="0.7316" stop-color="#D6E627"/>
<stop offset="0.7971" stop-color="#ECEB20"/>
<stop offset="0.8597" stop-color="#F9EE1B"/>
<stop offset="0.9162" stop-color="#FEEF1A"/>
</linearGradient>
<linearGradient id="paint2_linear_438_31633" x1="50.3509" y1="40.133" x2="50.3509" y2="17.1217" gradientUnits="userSpaceOnUse">
<stop stop-color="#06303C"/>
<stop offset="0.1605" stop-color="#063936"/>
<stop offset="0.2827" stop-color="#06442F"/>
<stop offset="0.3185" stop-color="#0C4C30"/>
<stop offset="0.3743" stop-color="#1E6234"/>
<stop offset="0.4433" stop-color="#3B863A"/>
<stop offset="0.5219" stop-color="#62B843"/>
<stop offset="0.5559" stop-color="#75D047"/>
<stop offset="0.5956" stop-color="#8FD63E"/>
<stop offset="0.664" stop-color="#B7DF31"/>
<stop offset="0.7316" stop-color="#D6E627"/>
<stop offset="0.7971" stop-color="#ECEB20"/>
<stop offset="0.8597" stop-color="#F9EE1B"/>
<stop offset="0.9162" stop-color="#FEEF1A"/>
</linearGradient>
<linearGradient id="paint3_linear_438_31633" x1="53.1274" y1="47.1565" x2="53.1274" y2="26.6549" gradientUnits="userSpaceOnUse">
<stop stop-color="#06303C"/>
<stop offset="0.1605" stop-color="#063936"/>
<stop offset="0.2827" stop-color="#06442F"/>
<stop offset="0.3185" stop-color="#0C4C30"/>
<stop offset="0.3743" stop-color="#1E6234"/>
<stop offset="0.4433" stop-color="#3B863A"/>
<stop offset="0.5219" stop-color="#62B843"/>
<stop offset="0.5559" stop-color="#75D047"/>
<stop offset="0.5956" stop-color="#8FD63E"/>
<stop offset="0.664" stop-color="#B7DF31"/>
<stop offset="0.7316" stop-color="#D6E627"/>
<stop offset="0.7971" stop-color="#ECEB20"/>
<stop offset="0.8597" stop-color="#F9EE1B"/>
<stop offset="0.9162" stop-color="#FEEF1A"/>
</linearGradient>
<linearGradient id="paint4_linear_438_31633" x1="22.8529" y1="50.6296" x2="12.4517" y2="32.6141" gradientUnits="userSpaceOnUse">
<stop stop-color="#06303C"/>
<stop offset="0.1605" stop-color="#063936"/>
<stop offset="0.2827" stop-color="#06442F"/>
<stop offset="0.3185" stop-color="#0C4C30"/>
<stop offset="0.3743" stop-color="#1E6234"/>
<stop offset="0.4433" stop-color="#3B863A"/>
<stop offset="0.5219" stop-color="#62B843"/>
<stop offset="0.5559" stop-color="#75D047"/>
<stop offset="0.5956" stop-color="#8FD63E"/>
<stop offset="0.664" stop-color="#B7DF31"/>
<stop offset="0.7316" stop-color="#D6E627"/>
<stop offset="0.7971" stop-color="#ECEB20"/>
<stop offset="0.8597" stop-color="#F9EE1B"/>
<stop offset="0.9162" stop-color="#FEEF1A"/>
</linearGradient>
<linearGradient id="paint5_linear_438_31633" x1="27.8328" y1="33.2295" x2="27.8328" y2="9.23204" gradientUnits="userSpaceOnUse">
<stop stop-color="#06303C"/>
<stop offset="0.1605" stop-color="#063936"/>
<stop offset="0.2827" stop-color="#06442F"/>
<stop offset="0.3185" stop-color="#0C4C30"/>
<stop offset="0.3743" stop-color="#1E6234"/>
<stop offset="0.4433" stop-color="#3B863A"/>
<stop offset="0.5219" stop-color="#62B843"/>
<stop offset="0.5559" stop-color="#75D047"/>
<stop offset="0.5956" stop-color="#8FD63E"/>
<stop offset="0.664" stop-color="#B7DF31"/>
<stop offset="0.7316" stop-color="#D6E627"/>
<stop offset="0.7971" stop-color="#ECEB20"/>
<stop offset="0.8597" stop-color="#F9EE1B"/>
<stop offset="0.9162" stop-color="#FEEF1A"/>
</linearGradient>
<linearGradient id="paint6_linear_438_31633" x1="22.7374" y1="40.133" x2="22.7374" y2="17.1217" gradientUnits="userSpaceOnUse">
<stop stop-color="#06303C"/>
<stop offset="0.1605" stop-color="#063936"/>
<stop offset="0.2827" stop-color="#06442F"/>
<stop offset="0.3185" stop-color="#0C4C30"/>
<stop offset="0.3743" stop-color="#1E6234"/>
<stop offset="0.4433" stop-color="#3B863A"/>
<stop offset="0.5219" stop-color="#62B843"/>
<stop offset="0.5559" stop-color="#75D047"/>
<stop offset="0.5956" stop-color="#8FD63E"/>
<stop offset="0.664" stop-color="#B7DF31"/>
<stop offset="0.7316" stop-color="#D6E627"/>
<stop offset="0.7971" stop-color="#ECEB20"/>
<stop offset="0.8597" stop-color="#F9EE1B"/>
<stop offset="0.9162" stop-color="#FEEF1A"/>
</linearGradient>
<linearGradient id="paint7_linear_438_31633" x1="19.9609" y1="47.1565" x2="19.9609" y2="26.6549" gradientUnits="userSpaceOnUse">
<stop stop-color="#06303C"/>
<stop offset="0.1605" stop-color="#063936"/>
<stop offset="0.2827" stop-color="#06442F"/>
<stop offset="0.3185" stop-color="#0C4C30"/>
<stop offset="0.3743" stop-color="#1E6234"/>
<stop offset="0.4433" stop-color="#3B863A"/>
<stop offset="0.5219" stop-color="#62B843"/>
<stop offset="0.5559" stop-color="#75D047"/>
<stop offset="0.5956" stop-color="#8FD63E"/>
<stop offset="0.664" stop-color="#B7DF31"/>
<stop offset="0.7316" stop-color="#D6E627"/>
<stop offset="0.7971" stop-color="#ECEB20"/>
<stop offset="0.8597" stop-color="#F9EE1B"/>
<stop offset="0.9162" stop-color="#FEEF1A"/>
</linearGradient>
<linearGradient id="paint8_linear_438_31633" x1="36.8729" y1="43.749" x2="36.8729" y2="2.00005" gradientUnits="userSpaceOnUse">
<stop stop-color="#06303C"/>
<stop offset="0.1605" stop-color="#063936"/>
<stop offset="0.2827" stop-color="#06442F"/>
<stop offset="0.3185" stop-color="#0C4C30"/>
<stop offset="0.3743" stop-color="#1E6234"/>
<stop offset="0.4433" stop-color="#3B863A"/>
<stop offset="0.5219" stop-color="#62B843"/>
<stop offset="0.5559" stop-color="#75D047"/>
<stop offset="0.5956" stop-color="#8FD63E"/>
<stop offset="0.664" stop-color="#B7DF31"/>
<stop offset="0.7316" stop-color="#D6E627"/>
<stop offset="0.7971" stop-color="#ECEB20"/>
<stop offset="0.8597" stop-color="#F9EE1B"/>
<stop offset="0.9162" stop-color="#FEEF1A"/>
</linearGradient>
<linearGradient id="paint9_linear_438_31633" x1="36.8729" y1="36.1882" x2="36.8729" y2="9.56088" gradientUnits="userSpaceOnUse">
<stop stop-color="#06303C"/>
<stop offset="0.3318" stop-color="#063936"/>
<stop offset="0.5844" stop-color="#06442F"/>
<stop offset="0.6388" stop-color="#0C4C30"/>
<stop offset="0.7238" stop-color="#1E6234"/>
<stop offset="0.8287" stop-color="#3B863A"/>
<stop offset="0.9483" stop-color="#62B843"/>
<stop offset="1" stop-color="#75D047"/>
</linearGradient>
<linearGradient id="paint10_linear_438_31633" x1="28.4878" y1="29.4727" x2="35.5013" y2="7.20702" gradientUnits="userSpaceOnUse">
<stop stop-color="#06303C"/>
<stop offset="0.1446" stop-color="#063936"/>
<stop offset="0.2547" stop-color="#06442F"/>
<stop offset="0.2683" stop-color="#0E4E31"/>
<stop offset="0.3301" stop-color="#2D7537"/>
<stop offset="0.394" stop-color="#47963D"/>
<stop offset="0.4594" stop-color="#5BB041"/>
<stop offset="0.527" stop-color="#6AC245"/>
<stop offset="0.5982" stop-color="#72CD46"/>
<stop offset="0.6788" stop-color="#75D047"/>
<stop offset="0.7049" stop-color="#8FD63E"/>
<stop offset="0.75" stop-color="#B7DF31"/>
<stop offset="0.7945" stop-color="#D6E627"/>
<stop offset="0.8377" stop-color="#ECEB20"/>
<stop offset="0.8789" stop-color="#F9EE1B"/>
<stop offset="0.9162" stop-color="#FEEF1A"/>
</linearGradient>
<linearGradient id="paint11_linear_438_31633" x1="33.8864" y1="37.3386" x2="39.8595" y2="37.3386" gradientUnits="userSpaceOnUse">
<stop stop-color="#06303C"/>
<stop offset="0.1605" stop-color="#063936"/>
<stop offset="0.2827" stop-color="#06442F"/>
<stop offset="0.3185" stop-color="#0C4C30"/>
<stop offset="0.3743" stop-color="#1E6234"/>
<stop offset="0.4433" stop-color="#3B863A"/>
<stop offset="0.5219" stop-color="#62B843"/>
<stop offset="0.5559" stop-color="#75D047"/>
<stop offset="0.5956" stop-color="#8FD63E"/>
<stop offset="0.664" stop-color="#B7DF31"/>
<stop offset="0.7316" stop-color="#D6E627"/>
<stop offset="0.7971" stop-color="#ECEB20"/>
<stop offset="0.8597" stop-color="#F9EE1B"/>
<stop offset="0.9162" stop-color="#FEEF1A"/>
</linearGradient>
<linearGradient id="paint12_linear_438_31633" x1="35.1033" y1="49.9296" x2="38.6424" y2="24.7476" gradientUnits="userSpaceOnUse">
<stop offset="0.4553" stop-color="#39DEB6"/>
<stop offset="0.4916" stop-color="#33C9A7"/>
<stop offset="0.5793" stop-color="#259A87"/>
<stop offset="0.6672" stop-color="#1A746C"/>
<stop offset="0.754" stop-color="#115657"/>
<stop offset="0.8391" stop-color="#0B4148"/>
<stop offset="0.922" stop-color="#07343F"/>
<stop offset="1" stop-color="#06303C"/>
</linearGradient>
<linearGradient id="paint13_linear_438_31633" x1="63.2192" y1="62.621" x2="7.04835" y2="91.2415" gradientUnits="userSpaceOnUse">
<stop stop-color="#FCEE21"/>
<stop offset="0.0601" stop-color="#FCE51F"/>
<stop offset="0.1599" stop-color="#FDCB1A"/>
<stop offset="0.2864" stop-color="#FEA212"/>
<stop offset="0.3854" stop-color="#FF7D0A"/>
<stop offset="0.6397" stop-color="#F21F66"/>
<stop offset="0.664" stop-color="#D43E73"/>
<stop offset="0.7021" stop-color="#AB6885"/>
<stop offset="0.7424" stop-color="#888D94"/>
<stop offset="0.7844" stop-color="#6BAAA0"/>
<stop offset="0.8286" stop-color="#55C1AA"/>
<stop offset="0.8762" stop-color="#45D1B1"/>
<stop offset="0.9294" stop-color="#3CDBB5"/>
<stop offset="1" stop-color="#39DEB6"/>
</linearGradient>
</defs>
</svg>
